<svg width="484" height="505" viewBox="0 0 484 505" fill="none" xmlns="http://www.w3.org/2000/svg">
<path d="M465.512 211.16C465.728 214.544 465.873 217.949 465.946 221.372L464.946 221.393C464.982 223.091 465 224.793 465 226.5C465 228.207 464.982 229.909 464.946 231.607L465.946 231.628C465.873 235.051 465.728 238.456 465.512 241.84L464.514 241.776C464.298 245.177 464.009 248.558 463.65 251.916L464.644 252.022C464.28 255.424 463.844 258.803 463.339 262.158L462.35 262.009C461.842 265.377 461.263 268.72 460.615 272.036L461.596 272.228C460.939 275.586 460.212 278.917 459.415 282.219L458.443 281.985C457.645 285.296 456.776 288.578 455.84 291.828L456.8 292.105C455.854 295.391 454.838 298.645 453.754 301.866L452.807 301.547C451.721 304.773 450.568 307.965 449.349 311.122L450.282 311.482C449.05 314.67 447.752 317.822 446.388 320.935L445.472 320.534C444.107 323.65 442.677 326.728 441.182 329.765L442.08 330.206C440.572 333.271 438.999 336.295 437.363 339.277L436.487 338.796C434.851 341.777 433.153 344.715 431.393 347.608L432.248 348.128C430.473 351.045 428.637 353.917 426.741 356.741L425.911 356.183C424.016 359.005 422.062 361.779 420.049 364.504L420.853 365.098C418.825 367.843 416.738 370.538 414.594 373.181L413.817 372.551C411.677 375.189 409.48 377.775 407.228 380.307L407.975 380.971C405.707 383.52 403.384 386.015 401.007 388.452L400.291 387.754C397.92 390.185 395.495 392.559 393.02 394.874L393.703 395.605C391.212 397.934 388.668 400.204 386.076 402.412L385.427 401.651C382.843 403.851 380.209 405.991 377.528 408.066L378.14 408.857C375.444 410.943 372.7 412.966 369.91 414.922L369.336 414.103C366.558 416.051 363.735 417.932 360.868 419.746L361.402 420.591C358.523 422.412 355.599 424.165 352.634 425.847L352.14 424.978C349.191 426.651 346.201 428.253 343.171 429.784L343.622 430.676C340.583 432.211 337.504 433.674 334.387 435.062L333.981 434.149C330.886 435.527 327.755 436.832 324.588 438.06L324.95 438.993C321.778 440.223 318.572 441.378 315.332 442.455L315.016 441.506C311.805 442.573 308.561 443.564 305.286 444.475L305.554 445.438C302.28 446.349 298.975 447.182 295.642 447.934L295.422 446.958C292.124 447.702 288.799 448.367 285.447 448.95L285.618 449.935C282.273 450.517 278.903 451.018 275.508 451.437L275.386 450.445C272.034 450.858 268.659 451.191 265.263 451.441L265.336 452.438C261.954 452.687 258.55 452.854 255.127 452.937L255.103 451.938C253.407 451.979 251.706 452 250 452C248.294 452 246.593 451.979 244.897 451.938L244.873 452.937C241.45 452.854 238.046 452.687 234.664 452.438L234.737 451.441C231.341 451.191 227.966 450.858 224.615 450.445L224.492 451.437C221.097 451.018 217.727 450.517 214.382 449.935L214.553 448.95C211.201 448.367 207.876 447.702 204.578 446.958L204.358 447.934C201.025 447.182 197.72 446.349 194.446 445.438L194.714 444.475C191.439 443.564 188.195 442.573 184.984 441.506L184.668 442.455C181.428 441.378 178.222 440.223 175.05 438.993L175.412 438.06C172.245 436.832 169.114 435.527 166.019 434.149L165.613 435.062C162.496 433.674 159.417 432.211 156.378 430.676L156.829 429.784C153.799 428.253 150.809 426.651 147.86 424.978L147.366 425.847C144.401 424.165 141.477 422.412 138.598 420.591L139.132 419.746C136.265 417.932 133.442 416.051 130.664 414.103L130.09 414.922C127.3 412.966 124.556 410.943 121.86 408.857L122.472 408.066C119.791 405.991 117.157 403.851 114.573 401.651L113.924 402.412C111.331 400.204 108.788 397.934 106.297 395.605L106.98 394.874C104.505 392.559 102.08 390.185 99.7091 387.754L98.9932 388.452C96.6164 386.015 94.2931 383.52 92.0253 380.971L92.7724 380.307C90.5202 377.775 88.3229 375.189 86.1825 372.551L85.406 373.181C83.2621 370.538 81.175 367.843 79.1469 365.098L79.9512 364.504C77.9383 361.779 75.9837 359.005 74.0891 356.183L73.2589 356.741C71.3627 353.917 69.5266 351.045 67.7523 348.128L68.6067 347.608C66.8471 344.715 65.1486 341.777 63.5133 338.796L62.6366 339.277C61.001 336.295 59.4284 333.271 57.9204 330.206L58.8177 329.765C57.3233 326.728 55.8927 323.65 54.5279 320.534L53.6119 320.935C52.248 317.822 50.9495 314.67 49.7182 311.482L50.651 311.122C49.4317 307.965 48.2786 304.773 47.1934 301.547L46.2456 301.866C45.1622 298.645 44.1463 295.391 43.1996 292.105L44.1605 291.828C43.2239 288.578 42.3554 285.296 41.5567 281.985L40.5846 282.219C39.788 278.917 39.0605 275.586 38.404 272.228L39.3854 272.036C38.7371 268.72 38.1581 265.377 37.6502 262.009L36.6614 262.158C36.1555 258.803 35.7199 255.424 35.3561 252.022L36.3504 251.916C35.9913 248.558 35.7024 245.177 35.4855 241.776L34.4875 241.84C34.2717 238.456 34.1268 235.051 34.0543 231.628L35.054 231.607C35.0181 229.909 35 228.207 35 226.5C35 224.793 35.0181 223.091 35.054 221.393L34.0543 221.372C34.1268 217.949 34.2717 214.544 34.4875 211.16L35.4855 211.224C35.7024 207.823 35.9913 204.442 36.3504 201.084L35.3561 200.978C35.7199 197.576 36.1555 194.197 36.6614 190.842L37.6502 190.991C38.1581 187.623 38.7371 184.28 39.3854 180.964L38.404 180.772C39.0605 177.414 39.788 174.083 40.5846 170.781L41.5567 171.015C42.3554 167.704 43.2239 164.422 44.1605 161.172L43.1996 160.895C44.1463 157.609 45.1622 154.355 46.2456 151.134L47.1934 151.453C48.2786 148.227 49.4317 145.035 50.651 141.878L49.7182 141.518C50.9495 138.33 52.248 135.178 53.6119 132.065L54.5279 132.466C55.8927 129.35 57.3233 126.272 58.8177 123.235L57.9204 122.794C59.4284 119.729 61.001 116.705 62.6366 113.723L63.5133 114.204C65.1486 111.223 66.8471 108.285 68.6067 105.392L67.7523 104.872C69.5266 101.955 71.3627 99.0835 73.2589 96.2592L74.0891 96.8166C75.9837 93.9949 77.9383 91.2208 79.9512 88.4964L79.1469 87.9022C81.175 85.157 83.2621 82.462 85.406 79.8193L86.1825 80.4493C88.3229 77.8109 90.5202 75.2249 92.7724 72.6934L92.0253 72.0287C94.2931 69.4796 96.6165 66.9854 98.9932 64.5482L99.7091 65.2464C102.08 62.8151 104.505 60.4409 106.98 58.1259L106.297 57.3955C108.788 55.066 111.331 52.7962 113.924 50.5881L114.573 51.3494C117.157 49.1486 119.791 47.0095 122.472 44.9342L121.86 44.1433C124.556 42.0567 127.3 40.0343 130.09 38.0782L130.664 38.897C133.442 36.9493 136.265 35.0678 139.132 33.2544L138.598 32.4093C141.477 30.5879 144.401 28.835 147.366 27.1527L147.86 28.0224C150.809 26.3495 153.799 24.7468 156.829 23.2164L156.378 22.3238C159.417 20.7886 162.496 19.3258 165.613 17.9375L166.019 18.851C169.114 17.4726 172.245 16.1681 175.412 14.9395L175.05 14.0072C178.222 12.7766 181.428 11.6219 184.668 10.5451L184.984 11.4941C188.195 10.4268 191.439 9.43646 194.714 8.52517L194.446 7.56177C197.72 6.65057 201.025 5.81799 204.358 5.06608L204.578 6.04157C207.876 5.29775 211.201 4.63325 214.553 4.05007L214.382 3.06487C217.727 2.48294 221.097 1.98159 224.492 1.56279L224.614 2.55526C227.966 2.14183 231.341 1.80924 234.737 1.55939L234.664 0.562081C238.046 0.313306 241.45 0.146176 244.873 0.0625591L244.897 1.06226C246.593 1.02083 248.294 1 250 1C251.706 1 253.407 1.02083 255.103 1.06226L255.127 0.0625583C258.55 0.146175 261.954 0.313304 265.336 0.562078L265.263 1.55938C268.659 1.80923 272.034 2.14183 275.385 2.55526L275.508 1.56278C278.903 1.98158 282.273 2.48293 285.618 3.06487L285.447 4.05007C288.799 4.63324 292.124 5.29774 295.422 6.04156L295.642 5.06607C298.975 5.81799 302.28 6.65057 305.554 7.56177L305.286 8.52516C308.561 9.43646 311.805 10.4268 315.016 11.4941L315.332 10.5451C318.572 11.6219 321.778 12.7766 324.95 14.0072L324.588 14.9395C327.755 16.1681 330.886 17.4726 333.981 18.851L334.387 17.9375C337.504 19.3258 340.583 20.7886 343.622 22.3238L343.171 23.2164C346.201 24.7468 349.191 26.3495 352.14 28.0224L352.634 27.1527C355.599 28.835 358.523 30.5879 361.402 32.4093L360.868 33.2544C363.735 35.0677 366.558 36.9493 369.336 38.897L369.91 38.0782C372.7 40.0343 375.444 42.0567 378.14 44.1433L377.528 44.9341C380.209 47.0095 382.843 49.1486 385.427 51.3494L386.076 50.5881C388.668 52.7962 391.212 55.066 393.703 57.3955L393.02 58.1259C395.495 60.4409 397.92 62.8151 400.291 65.2464L401.007 64.5482C403.384 66.9854 405.707 69.4796 407.975 72.0287L407.228 72.6934C409.48 75.2249 411.677 77.8109 413.817 80.4493L414.594 79.8193C416.738 82.462 418.825 85.157 420.853 87.9022L420.049 88.4964C422.062 91.2208 424.016 93.9949 425.911 96.8167L426.741 96.2592C428.637 99.0835 430.473 101.955 432.248 104.872L431.393 105.392C433.153 108.285 434.851 111.223 436.487 114.204L437.363 113.723C438.999 116.705 440.572 119.729 442.08 122.794L441.182 123.235C442.677 126.272 444.107 129.35 445.472 132.466L446.388 132.065C447.752 135.178 449.05 138.33 450.282 141.518L449.349 141.878C450.568 145.035 451.721 148.227 452.807 151.453L453.754 151.134C454.838 154.355 455.854 157.609 456.8 160.895L455.839 161.172C456.776 164.422 457.645 167.704 458.443 171.015L459.415 170.781C460.212 174.083 460.939 177.414 461.596 180.772L460.615 180.964C461.263 184.28 461.842 187.623 462.35 190.991L463.339 190.842C463.844 194.197 464.28 197.576 464.644 200.978L463.65 201.084C464.009 204.442 464.298 207.823 464.514 211.224L465.512 211.16Z" stroke="#E3183E" stroke-width="2" stroke-dasharray="10 10"/>
<path d="M483.541 248.507C483.744 251.816 483.881 255.143 483.949 258.486L482.949 258.507C482.983 260.167 483 261.831 483 263.5C483 265.168 482.983 266.833 482.949 268.493L483.949 268.514C483.881 271.857 483.744 275.184 483.541 278.493L482.543 278.432C482.339 281.754 482.068 285.058 481.73 288.342L482.725 288.444C482.383 291.773 481.973 295.081 481.496 298.368L480.507 298.225C480.029 301.521 479.484 304.795 478.874 308.046L479.857 308.23C479.241 311.515 478.558 314.776 477.81 318.012L476.835 317.787C476.086 321.027 475.271 324.243 474.392 327.432L475.356 327.698C474.469 330.916 473.517 334.108 472.501 337.271L471.549 336.966C470.533 340.13 469.453 343.266 468.31 346.372L469.249 346.717C468.096 349.851 466.881 352.954 465.603 356.025L464.68 355.641C463.403 358.709 462.065 361.746 460.666 364.749L461.573 365.171C460.164 368.196 458.695 371.186 457.166 374.141L456.278 373.682C454.751 376.632 453.166 379.546 451.522 382.423L452.39 382.919C450.737 385.815 449.024 388.673 447.256 391.492L446.409 390.96C444.644 393.772 442.823 396.546 440.946 399.278L441.771 399.844C439.884 402.592 437.942 405.299 435.945 407.964L435.145 407.364C433.155 410.021 431.111 412.635 429.015 415.205L429.79 415.837C427.683 418.42 425.525 420.958 423.315 423.45L422.567 422.787C420.366 425.27 418.114 427.707 415.813 430.097L416.534 430.79C414.223 433.19 411.864 435.543 409.457 437.846L408.765 437.123C406.368 439.416 403.924 441.661 401.434 443.854L402.095 444.605C399.597 446.806 397.052 448.957 394.463 451.056L393.833 450.279C391.257 452.367 388.636 454.403 385.973 456.386L386.571 457.188C383.9 459.176 381.188 461.11 378.434 462.989L377.87 462.163C375.133 464.032 372.354 465.845 369.537 467.602L370.066 468.451C367.242 470.211 364.38 471.916 361.48 473.562L360.986 472.692C358.105 474.328 355.186 475.906 352.232 477.425L352.689 478.314C349.731 479.836 346.737 481.298 343.709 482.699L343.289 481.792C340.283 483.183 337.243 484.515 334.171 485.784L334.553 486.709C331.479 487.979 328.373 489.189 325.237 490.335L324.894 489.396C321.786 490.532 318.648 491.606 315.481 492.617L315.785 493.569C312.62 494.579 309.427 495.526 306.207 496.408L305.943 495.444C302.752 496.317 299.536 497.127 296.294 497.872L296.518 498.847C293.281 499.591 290.019 500.27 286.734 500.882L286.55 499.899C283.299 500.506 280.024 501.047 276.728 501.522L276.87 502.512C273.582 502.985 270.273 503.392 266.944 503.733L266.843 502.738C263.558 503.073 260.254 503.343 256.932 503.546L256.993 504.544C253.684 504.746 250.357 504.881 247.014 504.949L246.994 503.949C245.333 503.983 243.669 504 242 504C240.331 504 238.667 503.983 237.007 503.949L236.986 504.949C233.643 504.881 230.316 504.746 227.007 504.544L227.068 503.546C223.746 503.343 220.442 503.073 217.157 502.738L217.056 503.733C213.727 503.392 210.418 502.985 207.13 502.512L207.272 501.522C203.976 501.047 200.701 500.506 197.45 499.899L197.266 500.882C193.981 500.27 190.719 499.591 187.482 498.847L187.706 497.872C184.464 497.128 181.248 496.317 178.057 495.444L177.793 496.408C174.573 495.526 171.38 494.579 168.215 493.569L168.519 492.617C165.352 491.606 162.214 490.532 159.106 489.396L158.763 490.335C155.627 489.189 152.521 487.979 149.447 486.709L149.829 485.784C146.757 484.515 143.717 483.183 140.711 481.792L140.291 482.699C137.263 481.298 134.269 479.836 131.311 478.314L131.768 477.425C128.814 475.906 125.895 474.328 123.014 472.692L122.52 473.562C119.62 471.916 116.758 470.211 113.934 468.451L114.463 467.602C111.646 465.845 108.867 464.032 106.13 462.163L105.566 462.989C102.812 461.11 100.1 459.176 97.4294 457.188L98.0266 456.386C95.3638 454.403 92.7434 452.367 90.167 450.279L89.5373 451.056C86.9482 448.957 84.4034 446.806 81.9045 444.605L82.5656 443.854C80.0756 441.661 77.6315 439.416 75.2347 437.123L74.5434 437.846C72.1362 435.543 69.7766 433.19 67.4662 430.79L68.1866 430.097C65.8859 427.707 63.6341 425.27 61.433 422.787L60.6847 423.45C58.4753 420.958 56.3167 418.42 54.2104 415.837L54.9854 415.205C52.8892 412.635 50.8452 410.021 48.8549 407.364L48.0546 407.964C46.0584 405.299 44.1162 402.592 42.2293 399.844L43.0537 399.278C41.1773 396.546 39.3561 393.772 37.5914 390.96L36.7444 391.492C34.9756 388.673 33.2634 385.815 31.6096 382.919L32.4779 382.423C30.8344 379.546 29.2488 376.632 27.7225 373.682L26.8343 374.141C25.3055 371.186 23.836 368.196 22.4274 365.171L23.3339 364.749C21.9352 361.746 20.5968 358.709 19.3203 355.641L18.397 356.025C17.1195 352.954 15.9037 349.851 14.7511 346.717L15.6896 346.372C14.5472 343.266 13.4672 340.13 12.451 336.966L11.4989 337.271C10.4831 334.108 9.53091 330.916 8.64377 327.698L9.60782 327.432C8.72884 324.243 7.91401 321.027 7.1648 317.787L6.1905 318.012C5.44232 314.776 4.75931 311.515 4.14292 308.23L5.12576 308.046C4.51565 304.795 3.97108 301.521 3.49349 298.225L2.50382 298.368C2.02748 295.081 1.61748 291.773 1.27522 288.444L2.26997 288.342C1.93227 285.058 1.66079 281.754 1.45688 278.432L0.458762 278.493C0.255675 275.184 0.119352 271.857 0.0511178 268.514L1.05091 268.493C1.01702 266.833 1 265.169 1 263.5C1 261.832 1.01702 260.167 1.05091 258.507L0.0511159 258.486C0.119348 255.143 0.25567 251.816 0.458754 248.507L1.45688 248.568C1.66078 245.246 1.93226 241.942 2.26996 238.658L1.27521 238.556C1.61747 235.227 2.02747 231.919 2.50381 228.632L3.49347 228.775C3.97107 225.479 4.51564 222.205 5.12575 218.954L4.1429 218.77C4.75929 215.485 5.4423 212.224 6.19049 208.988L7.16479 209.213C7.914 205.973 8.72883 202.757 9.60781 199.568L8.64376 199.302C9.53089 196.084 10.4831 192.892 11.4989 189.729L12.451 190.034C13.4671 186.87 14.5472 183.734 15.6896 180.628L14.751 180.283C15.9036 177.149 17.1195 174.046 18.397 170.975L19.3203 171.359C20.5968 168.291 21.9352 165.254 23.3338 162.251L22.4273 161.829C23.836 158.804 25.3055 155.814 26.8343 152.859L27.7225 153.318C29.2487 150.368 30.8344 147.454 32.4779 144.577L31.6096 144.081C33.2634 141.185 34.9756 138.327 36.7444 135.508L37.5914 136.04C39.3561 133.228 41.1773 130.454 43.0537 127.722L42.2293 127.156C44.1162 124.408 46.0584 121.701 48.0545 119.036L48.8549 119.636C50.8452 116.979 52.8892 114.365 54.9854 111.795L54.2104 111.163C56.3166 108.58 58.4753 106.042 60.6847 103.55L61.433 104.213C63.6341 101.73 65.8858 99.293 68.1866 96.9031L67.4662 96.2095C69.7766 93.8097 72.1362 91.4574 74.5434 89.1542L75.2347 89.8768C77.6315 87.5836 80.0756 85.3394 82.5656 83.1457L81.9045 82.3954C84.4034 80.1938 86.9482 78.0429 89.5373 75.9444L90.167 76.7212C92.7434 74.633 95.3638 72.5968 98.0266 70.6142L97.4294 69.8121C100.1 67.824 102.812 65.8897 105.566 64.0106L106.13 64.8366C108.867 62.9683 111.646 61.1549 114.463 59.398L113.934 58.5495C116.758 56.7887 119.62 55.0844 122.52 53.4381L123.014 54.3078C125.895 52.6721 128.814 51.094 131.768 49.575L131.311 48.6857C134.269 47.1645 137.263 45.7023 140.291 44.3008L140.711 45.2083C143.717 43.8169 146.757 42.4854 149.829 41.2155L149.447 40.2914C152.521 39.0206 155.627 37.8113 158.763 36.6648L159.106 37.604C162.214 36.468 165.352 35.3939 168.519 34.3835L168.215 33.4308C171.38 32.4208 174.573 31.474 177.793 30.592L178.057 31.5565C181.248 30.6826 184.464 29.8725 187.706 29.1277L187.482 28.1531C190.719 27.4093 193.981 26.7304 197.266 26.1177L197.45 27.1007C200.701 26.4943 203.976 25.953 207.272 25.4783L207.13 24.4885C210.418 24.015 213.727 23.6075 217.056 23.2673L217.157 24.2622C220.442 23.9265 223.746 23.6567 227.068 23.4541L227.007 22.4559C230.316 22.2541 233.643 22.1186 236.986 22.0508L237.006 23.0506C238.667 23.0169 240.331 23 242 23C243.669 23 245.333 23.0169 246.993 23.0506L247.014 22.0508C250.357 22.1186 253.684 22.2541 256.993 22.4559L256.932 23.4541C260.254 23.6567 263.558 23.9265 266.843 24.2621L266.944 23.2673C270.273 23.6075 273.582 24.015 276.87 24.4885L276.728 25.4783C280.024 25.953 283.299 26.4943 286.55 27.1007L286.734 26.1177C290.019 26.7304 293.281 27.4093 296.518 28.1531L296.294 29.1277C299.536 29.8725 302.752 30.6826 305.943 31.5565L306.207 30.592C309.427 31.474 312.62 32.4208 315.785 33.4308L315.481 34.3835C318.648 35.3939 321.786 36.4679 324.894 37.604L325.237 36.6648C328.373 37.8113 331.479 39.0206 334.553 40.2914L334.171 41.2155C337.243 42.4854 340.283 43.8168 343.289 45.2083L343.709 44.3008C346.737 45.7023 349.731 47.1645 352.689 48.6857L352.232 49.575C355.186 51.094 358.105 52.6721 360.986 54.3078L361.48 53.4381C364.38 55.0843 367.242 56.7887 370.066 58.5495L369.537 59.398C372.354 61.1549 375.133 62.9683 377.87 64.8366L378.434 64.0106C381.188 65.8897 383.9 67.824 386.571 69.8121L385.973 70.6142C388.636 72.5968 391.257 74.633 393.833 76.7212L394.463 75.9444C397.052 78.0429 399.597 80.1938 402.095 82.3954L401.434 83.1457C403.924 85.3394 406.368 87.5836 408.765 89.8767L409.457 89.1542C411.864 91.4573 414.223 93.8097 416.534 96.2095L415.813 96.9031C418.114 99.293 420.366 101.73 422.567 104.213L423.315 103.55C425.525 106.042 427.683 108.58 429.79 111.163L429.015 111.795C431.111 114.365 433.155 116.979 435.145 119.636L435.945 119.036C437.942 121.701 439.884 124.408 441.771 127.156L440.946 127.722C442.823 130.454 444.644 133.228 446.409 136.04L447.256 135.508C449.024 138.327 450.737 141.185 452.39 144.081L451.522 144.577C453.166 147.454 454.751 150.368 456.278 153.318L457.166 152.859C458.695 155.814 460.164 158.804 461.573 161.829L460.666 162.251C462.065 165.254 463.403 168.291 464.68 171.359L465.603 170.975C466.881 174.046 468.096 177.149 469.249 180.283L468.31 180.628C469.453 183.734 470.533 186.87 471.549 190.034L472.501 189.729C473.517 192.892 474.469 196.084 475.356 199.302L474.392 199.568C475.271 202.757 476.086 205.973 476.835 209.213L477.81 208.988C478.558 212.224 479.241 215.485 479.857 218.77L478.874 218.954C479.484 222.205 480.029 225.479 480.507 228.775L481.496 228.632C481.973 231.919 482.383 235.227 482.725 238.556L481.73 238.658C482.068 241.942 482.339 245.246 482.543 248.568L483.541 248.507Z" stroke="#C4C4C4" stroke-width="2" stroke-dasharray="10 10"/>
</svg>
