<svg width="536" height="559" viewBox="0 0 536 559" fill="none" xmlns="http://www.w3.org/2000/svg">
<path d="M515.568 235.318C515.759 238.669 515.888 242.038 515.952 245.423L514.952 245.442C514.984 247.124 515 248.81 515 250.5C515 252.19 514.984 253.876 514.952 255.558L515.952 255.577C515.888 258.962 515.759 262.331 515.568 265.682L514.57 265.625C514.378 268.991 514.122 272.339 513.804 275.668L514.8 275.764C514.477 279.138 514.091 282.492 513.642 285.825L512.651 285.692C512.201 289.035 511.687 292.357 511.112 295.657L512.097 295.829C511.516 299.163 510.871 302.474 510.165 305.76L509.188 305.55C508.48 308.845 507.71 312.115 506.879 315.358L507.848 315.606C507.009 318.882 506.109 322.131 505.148 325.352L504.189 325.066C503.226 328.296 502.201 331.498 501.117 334.67L502.063 334.994C500.969 338.195 499.814 341.366 498.601 344.505L497.668 344.145C496.454 347.287 495.18 350.397 493.849 353.473L494.766 353.87C493.424 356.973 492.022 360.041 490.564 363.075L489.663 362.641C488.204 365.675 486.688 368.673 485.117 371.634L486 372.103C484.416 375.087 482.776 378.034 481.08 380.942L480.216 380.438C478.521 383.346 476.77 386.215 474.966 389.043L475.809 389.581C473.991 392.43 472.119 395.237 470.194 398.002L469.373 397.431C467.451 400.192 465.475 402.911 463.449 405.585L464.246 406.189C462.205 408.881 460.114 411.528 457.971 414.128L457.2 413.492C455.061 416.088 452.872 418.637 450.635 421.138L451.38 421.805C449.129 424.321 446.829 426.789 444.482 429.206L443.764 428.509C441.422 430.921 439.032 433.283 436.597 435.592L437.285 436.318C434.835 438.64 432.339 440.911 429.799 443.127L429.141 442.373C426.608 444.583 424.031 446.739 421.411 448.839L422.036 449.619C419.403 451.729 416.727 453.783 414.009 455.78L413.417 454.974C410.709 456.963 407.96 458.894 405.172 460.766L405.729 461.596C402.929 463.476 400.088 465.296 397.21 467.055L396.688 466.202C393.823 467.953 390.92 469.643 387.98 471.271L388.465 472.146C385.515 473.778 382.529 475.349 379.507 476.854L379.061 475.959C376.057 477.456 373.019 478.889 369.947 480.257L370.354 481.17C367.276 482.54 364.166 483.845 361.024 485.082L360.657 484.151C357.537 485.379 354.386 486.541 351.206 487.634L351.531 488.58C348.347 489.674 345.134 490.7 341.893 491.656L341.61 490.697C338.396 491.645 335.154 492.524 331.887 493.333L332.127 494.304C328.861 495.112 325.569 495.85 322.252 496.516L322.055 495.536C318.771 496.195 315.463 496.784 312.132 497.301L312.286 498.289C308.963 498.804 305.619 499.248 302.253 499.618L302.144 498.624C298.821 498.99 295.477 499.284 292.115 499.505L292.18 500.503C288.83 500.723 285.462 500.871 282.076 500.945L282.054 499.945C280.374 499.982 278.689 500 277 500C275.311 500 273.626 499.982 271.945 499.945L271.924 500.945C268.538 500.871 265.169 500.723 261.82 500.503L261.885 499.505C258.523 499.284 255.179 498.99 251.856 498.624L251.747 499.618C248.381 499.248 245.037 498.804 241.714 498.289L241.867 497.301C238.537 496.784 235.229 496.195 231.945 495.536L231.748 496.516C228.431 495.85 225.139 495.112 221.873 494.303L222.113 493.333C218.845 492.524 215.604 491.645 212.39 490.697L212.107 491.656C208.866 490.7 205.653 489.674 202.469 488.58L202.794 487.634C199.614 486.541 196.463 485.379 193.343 484.151L192.976 485.082C189.834 483.845 186.724 482.54 183.646 481.17L184.053 480.257C180.981 478.889 177.942 477.456 174.939 475.959L174.493 476.854C171.471 475.349 168.485 473.778 165.535 472.146L166.02 471.271C163.08 469.643 160.177 467.953 157.312 466.202L156.79 467.055C153.912 465.296 151.071 463.476 148.271 461.596L148.828 460.766C146.04 458.894 143.291 456.963 140.583 454.974L139.991 455.78C137.274 453.783 134.597 451.729 131.964 449.619L132.589 448.839C129.969 446.739 127.392 444.583 124.859 442.373L124.201 443.127C121.661 440.911 119.165 438.64 116.715 436.318L117.403 435.592C114.968 433.283 112.578 430.921 110.236 428.509L109.518 429.206C107.171 426.789 104.871 424.321 102.62 421.805L103.365 421.138C101.128 418.637 98.9389 416.088 96.8003 413.492L96.0285 414.128C93.8865 411.528 91.7946 408.881 89.7544 406.189L90.5514 405.585C88.5248 402.911 86.5493 400.192 84.6267 397.431L83.806 398.002C81.8813 395.237 80.0093 392.43 78.1915 389.581L79.0345 389.043C77.2301 386.215 75.4793 383.346 73.7838 380.438L72.9199 380.942C71.2245 378.034 69.584 375.088 68 372.103L68.8833 371.634C67.3115 368.673 65.7957 365.675 64.3371 362.641L63.4359 363.074C61.9775 360.041 60.5763 356.973 59.2337 353.87L60.1514 353.473C58.8199 350.397 57.5462 347.287 56.3318 344.145L55.399 344.505C54.1856 341.366 53.031 338.195 51.9369 334.994L52.8832 334.67C51.799 331.498 50.7744 328.296 49.8107 325.066L48.8524 325.352C47.8914 322.131 46.9908 318.882 46.1519 315.606L47.1207 315.358C46.29 312.115 45.5201 308.845 44.8124 305.55L43.8347 305.76C43.1287 302.474 42.4843 299.163 41.9029 295.829L42.8881 295.657C42.3127 292.357 41.7992 289.035 41.349 285.692L40.3579 285.825C39.9091 282.492 39.5228 279.138 39.2004 275.764L40.1959 275.668C39.8778 272.339 39.6221 268.991 39.4301 265.625L38.4317 265.682C38.2406 262.331 38.1123 258.962 38.0481 255.577L39.0479 255.558C39.016 253.876 39 252.19 39 250.5C39 248.81 39.016 247.124 39.0479 245.442L38.0481 245.423C38.1123 242.038 38.2406 238.669 38.4317 235.318L39.4301 235.375C39.6221 232.009 39.8778 228.661 40.1959 225.332L39.2004 225.236C39.5228 221.862 39.9091 218.508 40.3579 215.175L41.349 215.308C41.7992 211.965 42.3127 208.643 42.8881 205.343L41.9029 205.171C42.4843 201.837 43.1287 198.526 43.8347 195.24L44.8124 195.45C45.5201 192.155 46.29 188.885 47.1207 185.642L46.1519 185.394C46.9908 182.118 47.8914 178.869 48.8524 175.648L49.8107 175.934C50.7744 172.704 51.799 169.502 52.8832 166.33L51.9369 166.006C53.031 162.805 54.1856 159.634 55.399 156.495L56.3318 156.855C57.5462 153.713 58.8199 150.603 60.1514 147.527L59.2337 147.13C60.5763 144.027 61.9775 140.959 63.4358 137.925L64.3371 138.359C65.7957 135.325 67.3115 132.327 68.8833 129.366L68 128.897C69.584 125.912 71.2244 122.966 72.9199 120.058L73.7838 120.562C75.4793 117.654 77.2301 114.785 79.0345 111.957L78.1915 111.419C80.0092 108.57 81.8813 105.763 83.806 102.998L84.6267 103.569C86.5493 100.808 88.5247 98.0892 90.5514 95.4151L89.7544 94.8111C91.7946 92.1192 93.8865 89.4723 96.0285 86.8721L96.8003 87.5079C98.9389 84.912 101.128 82.3627 103.365 79.8618L102.62 79.1951C104.871 76.6787 107.171 74.2111 109.518 71.7939L110.236 72.4906C112.578 70.0788 114.968 67.7173 117.403 65.408L116.715 64.6824C119.165 62.3596 121.661 60.0893 124.201 57.8732L124.859 58.6267C127.392 56.417 129.969 54.2613 132.589 52.1615L131.964 51.3812C134.597 49.2709 137.273 47.2168 139.991 45.2204L140.583 46.0263C143.291 44.0375 146.04 42.1062 148.828 40.2342L148.271 39.4039C151.071 37.524 153.912 35.7037 156.79 33.9445L157.312 34.7978C160.177 33.0468 163.08 31.3568 166.02 29.7294L165.535 28.8545C168.485 27.2215 171.471 25.6514 174.493 24.1457L174.939 25.0407C177.943 23.5436 180.981 22.1106 184.053 20.7432L183.646 19.8297C186.724 18.4597 189.834 17.1553 192.976 15.9183L193.343 16.8488C196.463 15.6206 199.614 14.4591 202.794 13.366L202.469 12.4203C205.653 11.3261 208.866 10.3001 212.107 9.34389L212.39 10.303C215.604 9.35489 218.846 8.47574 222.113 7.6672L221.873 6.69648C225.139 5.88821 228.431 5.15019 231.748 4.48402L231.945 5.46443C235.229 4.80477 238.537 4.21587 241.868 3.69929L241.714 2.71111C245.037 2.19581 248.381 1.75216 251.747 1.38173L251.856 2.37573C255.179 2.00995 258.523 1.71586 261.885 1.49497L261.82 0.497117C265.17 0.27706 268.538 0.129325 271.924 0.0553831L271.946 1.05514C273.626 1.01844 275.311 1 277 1C278.689 1 280.374 1.01844 282.055 1.05515L282.076 0.0553851C285.462 0.129328 288.831 0.277065 292.18 0.497123L292.115 1.49497C295.477 1.71587 298.821 2.00996 302.144 2.37574L302.253 1.38174C305.619 1.75217 308.963 2.19582 312.286 2.71112L312.133 3.6993C315.463 4.21588 318.771 4.80479 322.055 5.46445L322.252 4.48403C325.569 5.15021 328.861 5.88823 332.127 6.6965L331.887 7.66722C335.155 8.47576 338.396 9.35491 341.61 10.303L341.893 9.34391C345.134 10.3001 348.347 11.3261 351.531 12.4203L351.206 13.366C354.386 14.4591 357.537 15.6206 360.657 16.8489L361.024 15.9184C364.166 17.1553 367.276 18.4597 370.354 19.8297L369.947 20.7433C373.019 22.1106 376.058 23.5436 379.061 25.0407L379.508 24.1457C382.529 25.6514 385.515 27.2215 388.465 28.8545L387.98 29.7294C390.92 31.3568 393.823 33.0468 396.688 34.7978L397.21 33.9445C400.088 35.7037 402.929 37.524 405.729 39.4039L405.172 40.2342C407.96 42.1062 410.709 44.0374 413.417 46.0263L414.009 45.2204C416.727 47.2168 419.403 49.2709 422.036 51.3812L421.411 52.1615C424.031 54.2613 426.608 56.417 429.141 58.6267L429.799 57.8731C432.339 60.0893 434.835 62.3596 437.285 64.6823L436.597 65.408C439.032 67.7173 441.422 70.0787 443.764 72.4906L444.482 71.7939C446.829 74.2111 449.129 76.6787 451.38 79.1951L450.635 79.8618C452.872 82.3627 455.061 84.912 457.2 87.5079L457.971 86.8721C460.114 89.4723 462.205 92.1192 464.246 94.8111L463.449 95.4151C465.475 98.0892 467.451 100.808 469.373 103.569L470.194 102.998C472.119 105.763 473.991 108.57 475.809 111.419L474.966 111.957C476.77 114.785 478.521 117.654 480.216 120.562L481.08 120.058C482.776 122.966 484.416 125.912 486 128.897L485.117 129.366C486.688 132.327 488.204 135.325 489.663 138.359L490.564 137.926C492.022 140.959 493.424 144.027 494.766 147.13L493.849 147.527C495.18 150.603 496.454 153.713 497.668 156.855L498.601 156.495C499.814 159.634 500.969 162.805 502.063 166.006L501.117 166.33C502.201 169.502 503.226 172.704 504.189 175.934L505.148 175.648C506.109 178.869 507.009 182.118 507.848 185.394L506.879 185.642C507.71 188.885 508.48 192.155 509.188 195.45L510.165 195.24C510.871 198.526 511.516 201.837 512.097 205.171L511.112 205.343C511.687 208.643 512.201 211.965 512.651 215.308L513.642 215.175C514.091 218.508 514.477 221.862 514.8 225.236L513.804 225.332C514.122 228.661 514.378 232.009 514.57 235.375L515.568 235.318Z" stroke="#E3183E" stroke-width="2" stroke-dasharray="10 10"/>
<path d="M535.585 276.479C535.768 279.795 535.892 283.127 535.954 286.475L534.954 286.493C534.985 288.158 535 289.827 535 291.5C535 293.173 534.985 294.842 534.954 296.507L535.954 296.525C535.892 299.873 535.768 303.205 535.585 306.521L534.586 306.466C534.401 309.801 534.155 313.119 533.848 316.42L534.844 316.512C534.534 319.85 534.162 323.169 533.731 326.47L532.739 326.34C532.306 329.648 531.813 332.936 531.26 336.204L532.246 336.371C531.688 339.669 531.069 342.947 530.391 346.203L529.412 346C528.732 349.266 527.993 352.51 527.194 355.731L528.165 355.972C527.359 359.221 526.494 362.446 525.571 365.647L524.61 365.37C523.686 368.572 522.704 371.749 521.665 374.901L522.615 375.214C521.568 378.389 520.462 381.538 519.301 384.659L518.363 384.31C517.201 387.432 515.982 390.527 514.707 393.593L515.63 393.977C514.346 397.065 513.006 400.124 511.61 403.152L510.702 402.734C509.308 405.758 507.86 408.752 506.357 411.714L507.249 412.167C505.737 415.146 504.172 418.094 502.553 421.009L501.679 420.523C500.062 423.433 498.393 426.31 496.672 429.152L497.528 429.67C495.797 432.528 494.014 435.352 492.18 438.139L491.345 437.589C489.516 440.37 487.636 443.114 485.706 445.821L486.521 446.401C484.582 449.121 482.594 451.803 480.557 454.445L479.765 453.835C477.735 456.47 475.656 459.066 473.53 461.622L474.299 462.262C472.163 464.829 469.981 467.356 467.752 469.841L467.008 469.173C464.787 471.65 462.52 474.084 460.21 476.476L460.929 477.171C458.609 479.571 456.245 481.929 453.838 484.242L453.145 483.521C450.747 485.825 448.306 488.084 445.823 490.298L446.489 491.045C443.998 493.266 441.465 495.442 438.892 497.57L438.254 496.8C435.693 498.918 433.091 500.99 430.45 503.014L431.058 503.808C428.41 505.837 425.723 507.818 422.998 509.75L422.42 508.934C419.708 510.856 416.959 512.728 414.174 514.551L414.722 515.387C411.93 517.214 409.102 518.99 406.239 520.714L405.723 519.857C402.877 521.571 399.996 523.233 397.082 524.842L397.566 525.718C394.647 527.329 391.696 528.888 388.712 530.393L388.262 529.5C385.297 530.996 382.3 532.438 379.272 533.826L379.689 534.735C376.658 536.124 373.596 537.458 370.506 538.736L370.123 537.812C367.055 539.081 363.957 540.294 360.832 541.451L361.179 542.389C358.056 543.545 354.906 544.644 351.729 545.686L351.417 544.736C348.264 545.77 345.086 546.747 341.882 547.666L342.158 548.627C338.956 549.545 335.729 550.406 332.479 551.207L332.239 550.236C329.017 551.031 325.772 551.767 322.504 552.443L322.707 553.422C319.45 554.096 316.172 554.712 312.873 555.267L312.707 554.281C309.439 554.831 306.15 555.321 302.842 555.752L302.971 556.743C299.67 557.173 296.35 557.542 293.013 557.85L292.921 556.855C289.62 557.16 286.301 557.405 282.966 557.588L283.021 558.587C279.705 558.77 276.373 558.892 273.025 558.954L273.007 557.954C271.342 557.985 269.673 558 268 558C266.327 558 264.658 557.985 262.993 557.954L262.974 558.954C259.627 558.892 256.295 558.77 252.979 558.587L253.034 557.588C249.699 557.405 246.38 557.16 243.079 556.855L242.987 557.85C239.649 557.542 236.33 557.173 233.029 556.743L233.158 555.752C229.85 555.321 226.561 554.831 223.293 554.281L223.127 555.267C219.828 554.712 216.55 554.096 213.293 553.422L213.495 552.443C210.228 551.767 206.983 551.031 203.761 550.236L203.521 551.207C200.271 550.406 197.044 549.545 193.842 548.627L194.117 547.666C190.914 546.747 187.735 545.77 184.583 544.736L184.271 545.686C181.094 544.644 177.944 543.545 174.821 542.389L175.168 541.451C172.043 540.294 168.945 539.081 165.877 537.812L165.494 538.736C162.404 537.458 159.342 536.124 156.311 534.735L156.728 533.826C153.7 532.438 150.703 530.996 147.738 529.5L147.288 530.393C144.304 528.888 141.353 527.329 138.434 525.718L138.918 524.842C136.004 523.233 133.123 521.571 130.277 519.857L129.761 520.714C126.898 518.99 124.07 517.214 121.278 515.387L121.826 514.551C119.041 512.728 116.292 510.856 113.58 508.934L113.002 509.75C110.277 507.818 107.59 505.837 104.942 503.808L105.55 503.014C102.909 500.99 100.307 498.918 97.7457 496.8L97.1083 497.57C94.5349 495.442 92.002 493.266 89.511 491.045L90.1766 490.298C87.6939 488.084 85.2528 485.825 82.8549 483.521L82.162 484.242C79.7547 481.929 77.3907 479.571 75.0712 477.171L75.7903 476.476C73.4795 474.084 71.2131 471.65 68.9923 469.173L68.2478 469.841C66.0194 467.356 63.8368 464.829 61.7015 462.262L62.4703 461.622C60.3444 459.066 58.2654 456.47 56.2347 453.835L55.4426 454.445C53.406 451.803 51.4178 449.121 49.4792 446.401L50.2936 445.821C48.3643 443.114 46.4844 440.37 44.6552 437.589L43.8198 438.139C41.986 435.352 40.203 432.528 38.4721 429.67L39.3275 429.152C37.6067 426.31 35.9376 423.433 34.3214 420.523L33.4472 421.009C31.8284 418.094 30.2626 415.146 28.751 412.166L29.6428 411.714C28.1403 408.752 26.6916 405.758 25.298 402.734L24.3898 403.152C22.9944 400.124 21.654 397.065 20.3699 393.977L21.2932 393.593C20.0182 390.527 18.7989 387.432 17.6366 384.31L16.6994 384.659C15.5376 381.537 14.4324 378.389 13.3852 375.214L14.3349 374.9C13.2955 371.749 12.3135 368.572 11.39 365.37L10.4292 365.647C9.50588 362.446 8.64087 359.221 7.83537 355.971L8.80598 355.731C8.00742 352.51 7.26756 349.266 6.58758 345.999L5.60858 346.203C4.93067 342.947 4.31206 339.669 3.75394 336.371L4.73993 336.204C4.18696 332.936 3.69358 329.648 3.26096 326.34L2.2694 326.47C1.83764 323.169 1.46617 319.85 1.15611 316.512L2.15182 316.42C1.84516 313.119 1.59881 309.801 1.41388 306.466L0.415416 306.521C0.231517 303.205 0.108132 299.873 0.0463455 296.525L1.04618 296.507C1.01544 294.842 1 293.173 1 291.5C1 289.827 1.01544 288.158 1.04618 286.493L0.0463483 286.474C0.108137 283.127 0.231523 279.795 0.415425 276.479L1.41389 276.534C1.59882 273.199 1.84518 269.881 2.15184 266.58L1.15613 266.488C1.46618 263.15 1.83766 259.831 2.26942 256.53L3.26098 256.66C3.6936 253.352 4.18698 250.064 4.73995 246.796L3.75397 246.629C4.31209 243.331 4.93069 240.053 5.6086 236.797L6.58761 237C7.26759 233.734 8.00745 230.49 8.80601 227.269L7.8354 227.028C8.64091 223.779 9.50591 220.554 10.4292 217.352L11.39 217.63C12.3135 214.428 13.2956 211.251 14.3349 208.099L13.3852 207.786C14.4324 204.611 15.5376 201.462 16.6994 198.341L17.6366 198.69C18.799 195.568 20.0183 192.473 21.2932 189.407L20.3699 189.023C21.654 185.935 22.9944 182.876 24.3898 179.848L25.298 180.266C26.6917 177.242 28.1404 174.248 29.6429 171.286L28.751 170.833C30.2626 167.854 31.8285 164.906 33.4472 161.991L34.3214 162.477C35.9376 159.567 37.6068 156.69 39.3276 153.848L38.4722 153.33C40.2031 150.472 41.986 147.648 43.8198 144.861L44.6552 145.411C46.4844 142.63 48.3643 139.886 50.2936 137.179L49.4793 136.599C51.4178 133.879 53.406 131.197 55.4426 128.555L56.2347 129.165C58.2654 126.53 60.3444 123.934 62.4703 121.378L61.7015 120.738C63.8369 118.171 66.0194 115.644 68.2479 113.159L68.9923 113.827C71.2131 111.35 73.4795 108.916 75.7904 106.524L75.0712 105.829C77.3907 103.429 79.7548 101.071 82.1621 98.7582L82.8549 99.4792C85.2529 97.1752 87.6939 94.9156 90.1766 92.7015L89.5111 91.9552C92.0021 89.7338 94.5349 87.5582 97.1083 85.4297L97.7457 86.2002C100.307 84.0815 102.909 82.0097 105.55 79.986L104.942 79.1922C107.59 77.163 110.277 75.1819 113.002 73.2505L113.58 74.0663C116.292 72.1443 119.041 70.2716 121.826 68.4494L121.278 67.6126C124.07 65.7861 126.898 64.0103 129.761 62.2863L130.277 63.143C133.123 61.4293 136.004 59.767 138.918 58.1576L138.434 57.2822C141.353 55.6705 144.304 54.1116 147.288 52.6067L147.738 53.4995C150.703 52.0038 153.7 50.5617 156.728 49.1744L156.311 48.2653C159.342 46.8764 162.404 45.5423 165.494 44.2643L165.877 45.1884C168.945 43.9195 172.043 42.706 175.168 41.5492L174.821 40.6114C177.944 39.4554 181.094 38.3558 184.271 37.3139L184.583 38.2641C187.736 37.23 190.914 36.253 194.118 35.3342L193.842 34.373C197.044 33.4545 200.271 32.5941 203.521 31.7928L203.761 32.7637C206.983 31.9693 210.228 31.2334 213.496 30.557L213.293 29.5777C216.55 28.9035 219.828 28.2883 223.127 27.7332L223.293 28.7193C226.561 28.1694 229.85 27.6787 233.158 27.2485L233.029 26.2568C236.33 25.8274 239.65 25.458 242.987 25.1497L243.079 26.1454C246.38 25.8405 249.699 25.5955 253.034 25.4116L252.979 24.4131C256.295 24.2302 259.627 24.1075 262.975 24.0461L262.993 25.0459C264.658 25.0154 266.327 25 268 25C269.673 25 271.342 25.0154 273.007 25.0459L273.026 24.0461C276.373 24.1075 279.705 24.2302 283.021 24.4131L282.966 25.4116C286.301 25.5955 289.62 25.8405 292.921 26.1455L293.013 25.1497C296.351 25.458 299.67 25.8275 302.971 26.2568L302.842 27.2485C306.15 27.6787 309.439 28.1694 312.707 28.7194L312.873 27.7332C316.172 28.2883 319.45 28.9035 322.707 29.5778L322.505 30.557C325.772 31.2334 329.017 31.9694 332.239 32.7637L332.479 31.7928C335.729 32.5941 338.956 33.4546 342.158 34.373L341.883 35.3343C345.086 36.253 348.265 37.23 351.417 38.2641L351.729 37.3139C354.906 38.3558 358.056 39.4554 361.179 40.6114L360.832 41.5492C363.957 42.706 367.055 43.9195 370.123 45.1884L370.506 44.2643C373.596 45.5423 376.658 46.8764 379.689 48.2653L379.272 49.1744C382.3 50.5617 385.297 52.0038 388.262 53.4995L388.712 52.6067C391.696 54.1116 394.647 55.6705 397.566 57.2823L397.082 58.1576C399.996 59.767 402.877 61.4293 405.723 63.143L406.239 62.2863C409.102 64.0103 411.93 65.7861 414.722 67.6126L414.174 68.4494C416.959 70.2716 419.708 72.1443 422.42 74.0663L422.998 73.2505C425.723 75.182 428.41 77.163 431.058 79.1923L430.45 79.986C433.091 82.0097 435.693 84.0816 438.254 86.2003L438.892 85.4297C441.465 87.5582 443.998 89.7338 446.489 91.9552L445.823 92.7016C448.306 94.9156 450.747 97.1753 453.145 99.4793L453.838 98.7582C456.245 101.071 458.609 103.429 460.929 105.829L460.21 106.524C462.521 108.916 464.787 111.35 467.008 113.827L467.752 113.159C469.981 115.644 472.163 118.171 474.299 120.738L473.53 121.378C475.656 123.934 477.735 126.53 479.765 129.165L480.557 128.555C482.594 131.197 484.582 133.879 486.521 136.599L485.706 137.179C487.636 139.886 489.516 142.63 491.345 145.411L492.18 144.861C494.014 147.648 495.797 150.472 497.528 153.33L496.672 153.848C498.393 156.69 500.062 159.567 501.679 162.477L502.553 161.991C504.172 164.906 505.737 167.854 507.249 170.834L506.357 171.286C507.86 174.248 509.308 177.242 510.702 180.266L511.61 179.848C513.006 182.876 514.346 185.935 515.63 189.023L514.707 189.407C515.982 192.473 517.201 195.568 518.363 198.69L519.301 198.341C520.462 201.463 521.568 204.611 522.615 207.786L521.665 208.1C522.704 211.251 523.686 214.428 524.61 217.63L525.571 217.353C526.494 220.554 527.359 223.779 528.165 227.029L527.194 227.269C527.993 230.49 528.732 233.734 529.412 237.001L530.391 236.797C531.069 240.053 531.688 243.331 532.246 246.629L531.26 246.796C531.813 250.064 532.306 253.352 532.739 256.66L533.731 256.53C534.162 259.831 534.534 263.15 534.844 266.488L533.848 266.58C534.155 269.881 534.401 273.2 534.586 276.534L535.585 276.479Z" stroke="#C4C4C4" stroke-width="2" stroke-dasharray="10 10"/>
</svg>
