<svg width="334" height="348" viewBox="0 0 334 348" fill="none" xmlns="http://www.w3.org/2000/svg">
<path d="M320.328 141.064C320.625 144.35 320.825 147.665 320.925 151.006L319.926 151.036C319.975 152.684 320 154.339 320 156C320 157.661 319.975 159.316 319.926 160.964L320.925 160.994C320.825 164.335 320.625 167.65 320.328 170.936L319.332 170.846C319.033 174.155 318.635 177.434 318.141 180.679L319.129 180.829C318.626 184.133 318.025 187.403 317.327 190.634L316.35 190.423C315.65 193.667 314.853 196.871 313.963 200.034L314.926 200.305C314.022 203.516 313.023 206.684 311.931 209.805L310.987 209.474C309.892 212.605 308.704 215.688 307.425 218.72L308.347 219.108C307.052 222.181 305.665 225.201 304.19 228.165L303.294 227.72C301.82 230.684 300.256 233.591 298.608 236.439L299.473 236.94C297.804 239.824 296.047 242.647 294.208 245.405L293.376 244.85C291.54 247.603 289.621 250.291 287.623 252.909L288.418 253.515C286.398 256.162 284.298 258.737 282.121 261.238L281.367 260.581C279.196 263.076 276.948 265.495 274.627 267.836L275.338 268.54C272.995 270.903 270.58 273.185 268.094 275.384L267.432 274.635C264.957 276.823 262.414 278.928 259.805 280.945L260.416 281.736C257.786 283.769 255.09 285.713 252.332 287.563L251.775 286.733C249.035 288.572 246.233 290.318 243.374 291.967L243.874 292.833C240.998 294.492 238.065 296.054 235.077 297.514L234.638 296.616C231.678 298.062 228.665 299.409 225.603 300.651L225.979 301.578C222.906 302.824 219.784 303.967 216.617 305L216.307 304.05C213.182 305.07 210.012 305.983 206.802 306.787L207.045 307.757C203.836 308.56 200.586 309.254 197.299 309.834L197.125 308.85C193.892 309.421 190.623 309.881 187.322 310.227L187.426 311.222C184.145 311.566 180.833 311.798 177.492 311.914L177.458 310.914C175.812 310.971 174.159 311 172.5 311C170.841 311 169.188 310.971 167.542 310.914L167.508 311.913C164.167 311.798 160.855 311.566 157.574 311.222L157.678 310.227C154.377 309.881 151.108 309.421 147.875 308.85L147.701 309.834C144.414 309.254 141.164 308.56 137.955 307.757L138.198 306.787C134.988 305.983 131.818 305.07 128.693 304.05L128.383 305C125.216 303.967 122.094 302.824 119.021 301.578L119.397 300.651C116.335 299.409 113.322 298.062 110.362 296.616L109.923 297.514C106.935 296.054 104.002 294.492 101.126 292.833L101.626 291.967C98.7665 290.318 95.965 288.572 93.2251 286.733L92.6679 287.563C89.9097 285.712 87.2137 283.769 84.5837 281.736L85.1953 280.945C82.5862 278.928 80.0425 276.823 77.5682 274.635L76.9056 275.384C74.4203 273.185 72.0045 270.903 69.6623 268.54L70.3725 267.836C68.052 265.495 65.8041 263.076 63.6328 260.581L62.8785 261.238C60.7019 258.737 58.6018 256.161 56.5821 253.515L57.377 252.909C55.3788 250.291 53.4598 247.603 51.6237 244.85L50.7918 245.405C48.9527 242.647 47.1964 239.824 45.5267 236.94L46.3922 236.439C44.7439 233.591 43.1804 230.684 41.7056 227.72L40.8103 228.165C39.3353 225.201 37.9484 222.181 36.6531 219.108L37.5746 218.72C36.2964 215.688 35.108 212.605 34.013 209.474L33.0691 209.805C31.9774 206.684 30.978 203.516 30.0742 200.305L31.0368 200.034C30.1468 196.871 29.3501 193.667 28.6503 190.423L27.6728 190.634C26.9755 187.403 26.3736 184.133 25.8706 180.829L26.8592 180.679C26.3652 177.434 25.967 174.155 25.6677 170.846L24.6718 170.936C24.3747 167.65 24.1747 164.335 24.0746 160.994L25.0742 160.964C25.0249 159.316 25 157.661 25 156C25 154.339 25.0249 152.684 25.0742 151.036L24.0746 151.006C24.1747 147.665 24.3747 144.35 24.6718 141.064L25.6678 141.154C25.967 137.845 26.3652 134.566 26.8592 131.321L25.8706 131.171C26.3736 127.867 26.9755 124.597 27.6728 121.366L28.6503 121.577C29.3502 118.333 30.1468 115.129 31.0369 111.966L30.0743 111.695C30.978 108.484 31.9774 105.316 33.0691 102.195L34.013 102.526C35.108 99.395 36.2964 96.312 37.5746 93.2801L36.6531 92.8916C37.9484 89.8193 39.3353 86.799 40.8103 83.8348L41.7056 84.2803C43.1804 81.3162 44.7439 78.4086 46.3922 75.5611L45.5267 75.0602C47.1965 72.1757 48.9527 69.3527 50.7918 66.595L51.6238 67.1498C53.4598 64.3967 55.3788 61.7092 57.377 59.0913L56.5821 58.4846C58.6018 55.8385 60.7019 53.263 62.8786 50.7623L63.6329 51.4189C65.8042 48.9243 68.052 46.5046 70.3725 44.164L69.6624 43.4599C72.0045 41.0974 74.4203 38.8149 76.9056 36.6164L77.5682 37.3654C80.0425 35.1767 82.5862 33.0719 85.1953 31.0553L84.5838 30.2641C87.2137 28.2313 89.9098 26.2875 92.6679 24.4367L93.2251 25.2671C95.965 23.4285 98.7666 21.6824 101.626 20.0331L101.126 19.1669C104.002 17.5081 106.935 15.9464 109.923 14.4861L110.362 15.3845C113.322 13.9377 116.335 12.591 119.397 11.3488L119.021 10.4221C122.094 9.17564 125.216 8.03344 128.383 6.99961L128.693 7.95026C131.818 6.9303 134.988 6.01661 138.198 5.21319L137.955 4.24311C141.164 3.43982 144.414 2.74598 147.701 2.16555L147.875 3.15032C151.108 2.57931 154.377 2.11884 157.678 1.77273L157.574 0.778186C160.855 0.434212 164.167 0.202416 167.508 0.0865016L167.542 1.0859C169.188 1.02878 170.841 1 172.5 1C174.159 1 175.812 1.02878 177.458 1.0859L177.492 0.0865021C180.833 0.202416 184.145 0.434213 187.426 0.778187L187.322 1.77274C190.623 2.11884 193.892 2.57931 197.125 3.15032L197.299 2.16556C200.586 2.74599 203.836 3.43983 207.045 4.24312L206.802 5.2132C210.012 6.01661 213.182 6.93031 216.307 7.95027L216.617 6.99962C219.784 8.03344 222.906 9.17565 225.979 10.4221L225.603 11.3488C228.665 12.5911 231.678 13.9377 234.638 15.3845L235.077 14.4861C238.065 15.9464 240.998 17.5081 243.874 19.1669L243.374 20.0332C246.233 21.6824 249.035 23.4285 251.775 25.2671L252.332 24.4367C255.09 26.2875 257.786 28.2314 260.416 30.2641L259.805 31.0553C262.414 33.0719 264.957 35.1767 267.432 37.3654L268.094 36.6164C270.58 38.8149 272.995 41.0975 275.338 43.4599L274.628 44.164C276.948 46.5046 279.196 48.9243 281.367 51.4189L282.121 50.7623C284.298 53.2631 286.398 55.8385 288.418 58.4846L287.623 59.0913C289.621 61.7092 291.54 64.3967 293.376 67.1498L294.208 66.595C296.047 69.3527 297.804 72.1757 299.473 75.0602L298.608 75.5612C300.256 78.4086 301.82 81.3162 303.294 84.2803L304.19 83.8348C305.665 86.799 307.052 89.8193 308.347 92.8917L307.425 93.2801C308.704 96.312 309.892 99.3951 310.987 102.526L311.931 102.195C313.023 105.316 314.022 108.484 314.926 111.695L313.963 111.966C314.853 115.129 315.65 118.333 316.35 121.577L317.327 121.366C318.025 124.597 318.626 127.867 319.129 131.171L318.141 131.321C318.635 134.566 319.033 137.845 319.332 141.154L320.328 141.064Z" stroke="#E3183E" stroke-width="2" stroke-dasharray="10 10"/>
<path d="M333.32 166.922C333.621 170.241 333.823 173.587 333.924 176.959L332.925 176.989C332.975 178.653 333 180.324 333 182C333 183.676 332.975 185.347 332.925 187.011L333.924 187.041C333.823 190.413 333.621 193.76 333.32 197.078L332.324 196.988C332.022 200.324 331.62 203.631 331.121 206.907L332.11 207.057C331.602 210.39 330.995 213.69 330.291 216.954L329.314 216.743C328.608 220.016 327.805 223.252 326.907 226.449L327.87 226.719C326.961 229.959 325.955 233.158 324.856 236.315L323.911 235.986C322.813 239.142 321.62 242.254 320.337 245.32L321.26 245.706C319.962 248.806 318.573 251.86 317.095 254.862L316.198 254.42C314.723 257.416 313.16 260.362 311.511 263.253L312.38 263.748C310.716 266.665 308.966 269.527 307.134 272.33L306.297 271.783C304.471 274.575 302.563 277.309 300.576 279.982L301.378 280.578C299.376 283.271 297.294 285.901 295.135 288.465L294.37 287.821C292.223 290.372 290 292.857 287.704 295.273L288.429 295.962C286.119 298.392 283.736 300.754 281.284 303.042L280.602 302.311C278.166 304.585 275.661 306.786 273.09 308.911L273.728 309.682C271.145 311.817 268.497 313.876 265.787 315.856L265.197 315.048C262.509 317.012 259.759 318.897 256.95 320.7L257.491 321.542C254.673 323.351 251.797 325.078 248.867 326.719L248.378 325.847C245.475 327.473 242.518 329.014 239.51 330.469L239.945 331.369C236.934 332.825 233.872 334.193 230.762 335.471L230.382 334.546C227.309 335.809 224.189 336.983 221.026 338.065L221.35 339.011C218.188 340.092 214.983 341.082 211.738 341.976L211.473 341.012C208.272 341.895 205.032 342.684 201.756 343.378L201.963 344.356C198.697 345.048 195.395 345.645 192.061 346.143L191.913 345.154C188.636 345.645 185.327 346.04 181.99 346.336L182.079 347.332C178.76 347.628 175.413 347.826 172.041 347.926L172.012 346.926C170.347 346.975 168.677 347 167 347C165.323 347 163.653 346.975 161.988 346.926L161.959 347.926C158.587 347.826 155.24 347.628 151.921 347.332L152.01 346.336C148.672 346.04 145.364 345.645 142.087 345.154L141.939 346.143C138.605 345.645 135.303 345.048 132.037 344.356L132.244 343.378C128.968 342.684 125.728 341.895 122.527 341.012L122.262 341.976C119.017 341.081 115.812 340.092 112.65 339.011L112.974 338.065C109.811 336.983 106.691 335.809 103.618 334.546L103.238 335.471C100.128 334.193 97.0662 332.825 94.0548 331.369L94.49 330.469C91.4821 329.014 88.5249 327.473 85.6219 325.847L85.1332 326.719C82.2026 325.078 79.3268 323.351 76.5094 321.542L77.0496 320.7C74.2413 318.897 71.4912 317.012 68.8028 315.048L68.213 315.856C65.5027 313.876 62.8546 311.817 60.2724 309.682L60.9096 308.911C58.339 306.786 55.834 304.585 53.398 302.311L52.7157 303.042C50.2636 300.754 47.8809 298.392 45.5714 295.962L46.2963 295.273C44.0004 292.857 41.7771 290.372 39.63 287.821L38.865 288.465C36.7063 285.901 34.6241 283.271 32.6218 280.578L33.4242 279.981C31.4368 277.309 29.5287 274.575 27.7033 271.783L26.8663 272.33C25.0336 269.527 23.2838 266.665 21.6203 263.748L22.4889 263.252C20.8401 260.362 19.2766 257.416 17.8018 254.42L16.9046 254.862C15.4269 251.859 14.0376 248.806 12.7402 245.706L13.6626 245.32C12.3798 242.254 11.1874 239.142 10.0885 235.986L9.14416 236.315C8.04516 233.158 7.03928 229.959 6.12978 226.719L7.09255 226.449C6.19499 223.252 5.39186 220.016 4.68634 216.743L3.7088 216.954C3.00499 213.69 2.39772 210.39 1.89013 207.057L2.87873 206.907C2.37978 203.631 1.97772 200.324 1.67554 196.988L0.679616 197.078C0.379043 193.759 0.176712 190.413 0.0755367 187.041L1.07509 187.011C1.02515 185.347 1 183.676 1 182C1 180.324 1.02515 178.653 1.07509 176.989L0.0755392 176.959C0.176716 173.587 0.379048 170.24 0.679622 166.922L1.67555 167.012C1.97772 163.676 2.37979 160.369 2.87874 157.093L1.89014 156.943C2.39773 153.61 3.005 150.31 3.70882 147.046L4.68635 147.257C5.39187 143.984 6.195 140.748 7.09257 137.551L6.12979 137.281C7.0393 134.041 8.04518 130.842 9.14418 127.685L10.0886 128.014C11.1874 124.858 12.3798 121.746 13.6627 118.68L12.7402 118.294C14.0376 115.194 15.4269 112.14 16.9047 109.138L17.8019 109.58C19.2767 106.584 20.8402 103.638 22.4889 100.747L21.6203 100.252C23.2838 97.3353 25.0336 94.4734 26.8663 91.67L27.7033 92.2172C29.5287 89.4249 31.4369 86.6908 33.4242 84.0185L32.6218 83.4217C34.6241 80.7294 36.7063 78.0993 38.865 75.535L39.63 76.179C41.7772 73.6284 44.0004 71.1433 46.2963 68.727L45.5714 68.0382C47.881 65.6076 50.2636 63.2463 52.7158 60.9577L53.398 61.6888C55.834 59.4154 58.339 57.2143 60.9096 55.0889L60.2724 54.3182C62.8547 52.1831 65.5027 50.1241 68.213 48.1443L68.8028 48.9519C71.4912 46.9882 74.2413 45.1031 77.0496 43.2999L76.5094 42.4585C79.3268 40.6495 82.2026 38.9225 85.1333 37.2809L85.6219 38.1533C88.5249 36.5273 91.4821 34.9855 94.49 33.5314L94.0548 32.6311C97.0662 31.1753 100.128 29.8068 103.238 28.529L103.618 29.4539C106.691 28.1909 109.811 27.017 112.974 25.9354L112.65 24.9892C115.812 23.908 119.017 22.9185 122.262 22.0239L122.527 22.9879C125.728 22.1053 128.968 21.3157 132.244 20.622L132.037 19.6437C135.303 18.9521 138.605 18.3555 141.939 17.8568L142.087 18.8457C145.364 18.3555 148.673 17.9605 152.01 17.6636L151.921 16.6675C155.24 16.3723 158.587 16.1736 161.959 16.0742L161.988 17.0738C163.653 17.0247 165.323 17 167 17C168.677 17 170.347 17.0247 172.012 17.0738L172.041 16.0742C175.413 16.1736 178.76 16.3723 182.079 16.6675L181.99 17.6636C185.328 17.9605 188.636 18.3555 191.913 18.8458L192.061 17.8568C195.395 18.3555 198.697 18.9521 201.963 19.6437L201.756 20.6221C205.032 21.3157 208.272 22.1053 211.473 22.9879L211.738 22.0239C214.983 22.9185 218.188 23.908 221.35 24.9892L221.026 25.9354C224.189 27.017 227.309 28.1909 230.382 29.4539L230.762 28.529C233.872 29.8068 236.934 31.1753 239.945 32.6311L239.51 33.5314C242.518 34.9855 245.475 36.5273 248.378 38.1533L248.867 37.2809C251.797 38.9225 254.673 40.6495 257.491 42.4585L256.95 43.2999C259.759 45.1031 262.509 46.9882 265.197 48.9519L265.787 48.1443C268.497 50.124 271.145 52.1831 273.728 54.3182L273.09 55.0888C275.661 57.2143 278.166 59.4154 280.602 61.6888L281.284 60.9577C283.736 63.2462 286.119 65.6076 288.429 68.0382L287.704 68.727C290 71.1433 292.223 73.6284 294.37 76.1791L295.135 75.535C297.294 78.0993 299.376 80.7294 301.378 83.4218L300.576 84.0185C302.563 86.6908 304.471 89.4249 306.297 92.2172L307.134 91.6701C308.966 94.4734 310.716 97.3353 312.38 100.252L311.511 100.748C313.16 103.638 314.723 106.584 316.198 109.58L317.095 109.138C318.573 112.141 319.962 115.194 321.26 118.294L320.337 118.68C321.62 121.746 322.813 124.858 323.911 128.014L324.856 127.685C325.955 130.842 326.961 134.041 327.87 137.281L326.907 137.551C327.805 140.748 328.608 143.984 329.314 147.257L330.291 147.046C330.995 150.31 331.602 153.61 332.11 156.943L331.121 157.093C331.62 160.369 332.022 163.676 332.324 167.012L333.32 166.922Z" stroke="#C4C4C4" stroke-width="2" stroke-dasharray="10 10"/>
</svg>
