<svg width="886" height="937" viewBox="0 0 886 937" fill="none" xmlns="http://www.w3.org/2000/svg">
<path d="M864.744 404.86C864.858 408.21 864.934 411.57 864.971 414.939L863.972 414.95C863.99 416.631 864 418.314 864 420C864 421.686 863.99 423.369 863.972 425.05L864.971 425.061C864.934 428.431 864.858 431.79 864.744 435.14L863.745 435.106C863.631 438.461 863.48 441.806 863.292 445.141L864.29 445.197C864.1 448.563 863.872 451.918 863.607 455.262L862.61 455.183C862.344 458.527 862.042 461.86 861.702 465.181L862.696 465.283C862.353 468.637 861.972 471.98 861.554 475.31L860.562 475.185C860.144 478.512 859.689 481.826 859.197 485.128L860.186 485.275C859.689 488.611 859.155 491.933 858.583 495.242L857.598 495.072C857.027 498.374 856.42 501.664 855.776 504.939L856.758 505.132C856.107 508.441 855.42 511.735 854.695 515.015L853.719 514.8C852.996 518.072 852.237 521.33 851.442 524.572L852.413 524.811C851.61 528.085 850.77 531.344 849.894 534.587L848.929 534.326C848.055 537.562 847.144 540.782 846.198 543.985L847.157 544.269C846.203 547.5 845.212 550.716 844.186 553.914L843.234 553.608C842.209 556.8 841.149 559.975 840.054 563.132L840.999 563.459C839.894 566.642 838.755 569.806 837.58 572.952L836.643 572.602C835.47 575.743 834.262 578.865 833.019 581.968L833.947 582.34C832.695 585.466 831.408 588.573 830.087 591.66L829.167 591.266C827.848 594.348 826.494 597.41 825.106 600.452L826.016 600.867C824.619 603.93 823.187 606.973 821.721 609.994L820.821 609.557C819.358 612.574 817.861 615.569 816.331 618.543L817.22 619C815.68 621.993 814.106 624.964 812.499 627.913L811.621 627.434C810.016 630.378 808.379 633.299 806.709 636.197L807.576 636.696C805.896 639.612 804.183 642.505 802.437 645.374L801.583 644.854C799.841 647.718 798.066 650.558 796.26 653.374L797.102 653.914C795.285 656.746 793.437 659.554 791.557 662.337L790.728 661.777C788.851 664.555 786.943 667.307 785.005 670.034L785.82 670.613C783.87 673.355 781.889 676.071 779.878 678.761L779.077 678.162C777.07 680.846 775.032 683.504 772.964 686.135L773.751 686.753C771.672 689.398 769.563 692.015 767.424 694.605L766.653 693.969C764.519 696.553 762.356 699.11 760.163 701.638L760.919 702.293C758.715 704.834 756.482 707.347 754.221 709.83L753.481 709.157C751.225 711.635 748.94 714.084 746.627 716.503L747.349 717.195C745.026 719.625 742.673 722.026 740.294 724.396L739.588 723.688C737.213 726.053 734.811 728.388 732.382 730.692L733.07 731.417C730.631 733.731 728.164 736.013 725.671 738.264L725.001 737.522C722.513 739.767 719.999 741.982 717.459 744.164L718.11 744.922C715.561 747.112 712.985 749.27 710.383 751.395L709.751 750.62C707.155 752.74 704.534 754.827 701.888 756.881L702.501 757.671C699.847 759.731 697.167 761.758 694.463 763.75L693.87 762.945C691.172 764.933 688.45 766.887 685.704 768.806L686.276 769.625C683.523 771.55 680.745 773.439 677.944 775.293L677.392 774.46C674.598 776.309 671.781 778.123 668.941 779.902L669.471 780.749C666.625 782.532 663.755 784.278 660.864 785.988L660.355 785.127C657.471 786.833 654.565 788.501 651.638 790.133L652.125 791.007C649.192 792.642 646.237 794.24 643.261 795.8L642.797 794.914C639.83 796.469 636.843 797.987 633.835 799.467L634.277 800.364C631.264 801.846 628.231 803.29 625.178 804.695L624.76 803.787C621.718 805.187 618.657 806.548 615.576 807.871L615.97 808.79C612.886 810.114 609.782 811.399 606.66 812.644L606.289 811.715C603.18 812.955 600.052 814.156 596.906 815.316L597.252 816.254C594.104 817.416 590.937 818.537 587.753 819.618L587.431 818.671C584.263 819.747 581.076 820.783 577.874 821.777L578.17 822.732C574.966 823.727 571.744 824.681 568.507 825.594L568.235 824.632C565.016 825.54 561.78 826.406 558.529 827.232L558.775 828.201C555.523 829.026 552.256 829.81 548.974 830.552L548.753 829.576C545.492 830.313 542.216 831.009 538.925 831.662L539.12 832.643C535.83 833.296 532.525 833.907 529.207 834.475L529.039 833.489C525.744 834.054 522.436 834.576 519.115 835.055L519.258 836.045C515.939 836.524 512.607 836.961 509.263 837.354L509.146 836.361C505.827 836.751 502.497 837.099 499.154 837.404L499.245 838.4C495.906 838.705 492.556 838.966 489.195 839.184L489.13 838.187C485.797 838.403 482.452 838.577 479.097 838.707L479.136 839.706C475.788 839.836 472.429 839.924 469.06 839.967L469.047 838.967C467.367 838.989 465.685 839 464 839C462.315 839 460.632 838.989 458.952 838.967L458.939 839.967C455.571 839.924 452.212 839.836 448.864 839.706L448.903 838.707C445.548 838.577 442.203 838.403 438.869 838.187L438.805 839.184C435.443 838.966 432.093 838.705 428.755 838.4L428.846 837.404C425.503 837.099 422.172 836.751 418.854 836.361L418.737 837.354C415.393 836.961 412.061 836.524 408.742 836.045L408.885 835.055C405.564 834.576 402.256 834.054 398.961 833.489L398.792 834.475C395.474 833.907 392.17 833.296 388.88 832.643L389.075 831.662C385.784 831.009 382.508 830.313 379.247 829.576L379.026 830.552C375.744 829.81 372.477 829.026 369.225 828.201L369.471 827.232C366.22 826.406 362.984 825.54 359.765 824.632L359.493 825.594C356.256 824.681 353.034 823.727 349.83 822.732L350.126 821.777C346.923 820.783 343.737 819.747 340.569 818.671L340.247 819.618C337.063 818.537 333.896 817.416 330.748 816.254L331.094 815.316C327.948 814.156 324.82 812.955 321.711 811.715L321.34 812.644C318.218 811.399 315.114 810.114 312.03 808.79L312.424 807.871C309.343 806.548 306.282 805.187 303.24 803.787L302.822 804.695C299.769 803.29 296.736 801.846 293.723 800.364L294.165 799.467C291.157 797.987 288.17 796.469 285.203 794.914L284.739 795.8C281.763 794.24 278.808 792.642 275.875 791.007L276.362 790.133C273.435 788.501 270.529 786.833 267.645 785.127L267.136 785.988C264.245 784.278 261.375 782.532 258.528 780.749L259.059 779.902C256.219 778.123 253.402 776.309 250.608 774.46L250.056 775.293C247.255 773.439 244.477 771.55 241.724 769.625L242.296 768.806C239.55 766.887 236.828 764.933 234.13 762.945L233.537 763.75C230.833 761.758 228.153 759.731 225.499 757.671L226.112 756.881C223.466 754.827 220.845 752.74 218.249 750.62L217.617 751.395C215.015 749.27 212.439 747.112 209.89 744.922L210.541 744.164C208.001 741.982 205.487 739.767 202.999 737.522L202.329 738.264C199.836 736.013 197.369 733.731 194.93 731.417L195.618 730.692C193.189 728.388 190.787 726.053 188.412 723.688L187.706 724.396C185.326 722.026 182.974 719.625 180.651 717.195L181.373 716.503C179.06 714.084 176.775 711.635 174.519 709.157L173.779 709.83C171.518 707.347 169.285 704.834 167.081 702.293L167.837 701.638C165.644 699.11 163.481 696.553 161.347 693.969L160.576 694.605C158.437 692.015 156.328 689.398 154.249 686.753L155.036 686.135C152.968 683.504 150.93 680.846 148.923 678.162L148.122 678.761C146.111 676.071 144.13 673.355 142.18 670.613L142.995 670.034C141.056 667.307 139.149 664.555 137.272 661.777L136.443 662.337C134.563 659.554 132.715 656.746 130.898 653.914L131.74 653.374C129.934 650.558 128.159 647.718 126.417 644.854L125.563 645.374C123.817 642.505 122.105 639.612 120.424 636.696L121.291 636.197C119.621 633.299 117.984 630.378 116.379 627.434L115.501 627.913C113.894 624.964 112.32 621.993 110.78 619L111.669 618.543C110.139 615.569 108.642 612.574 107.179 609.557L106.279 609.994C104.813 606.973 103.381 603.93 101.984 600.867L102.894 600.452C101.506 597.41 100.152 594.348 98.8327 591.266L97.9134 591.66C96.5918 588.573 95.3048 585.466 94.0529 582.34L94.9812 581.968C93.7384 578.865 92.5303 575.743 91.3573 572.602L90.4205 572.952C89.2455 569.806 88.1056 566.642 87.0015 563.459L87.9462 563.132C86.8509 559.975 85.7907 556.8 84.7662 553.608L83.8141 553.914C82.7877 550.716 81.797 547.5 80.8427 544.269L81.8017 543.985C80.8556 540.782 79.9453 537.562 79.0711 534.326L78.1057 534.587C77.2296 531.344 76.3898 528.085 75.5867 524.81L76.5579 524.572C75.7627 521.33 75.0035 518.072 74.281 514.8L73.3045 515.015C72.5803 511.735 71.8927 508.441 71.2423 505.132L72.2235 504.939C71.5798 501.663 70.9725 498.374 70.4022 495.072L69.4167 495.242C68.8453 491.933 68.3109 488.61 67.814 485.275L68.8031 485.128C68.3112 481.826 67.8561 478.512 67.4383 475.185L66.4461 475.31C66.0278 471.979 65.6468 468.637 65.3035 465.282L66.2983 465.181C65.9584 461.859 65.6555 458.526 65.3901 455.182L64.3932 455.262C64.1279 451.918 63.8999 448.563 63.7097 445.197L64.7081 445.141C64.5198 441.806 64.3686 438.461 64.2551 435.106L63.2557 435.14C63.1424 431.79 63.0665 428.43 63.0285 425.061L64.0285 425.05C64.0095 423.369 64 421.686 64 420C64 418.314 64.0095 416.631 64.0285 414.95L63.0285 414.939C63.0665 411.569 63.1424 408.21 63.2557 404.86L64.2551 404.894C64.3686 401.539 64.5198 398.194 64.7082 394.859L63.7098 394.803C63.8999 391.437 64.1279 388.082 64.3932 384.738L65.3901 384.817C65.6555 381.473 65.9584 378.14 66.2983 374.819L65.3035 374.717C65.6468 371.363 66.0279 368.02 66.4461 364.69L67.4383 364.815C67.8562 361.488 68.3112 358.174 68.8031 354.872L67.814 354.725C68.311 351.389 68.8454 348.067 69.4168 344.758L70.4022 344.928C70.9725 341.626 71.5798 338.336 72.2236 335.061L71.2424 334.868C71.8927 331.559 72.5803 328.265 73.3045 324.985L74.281 325.2C75.0035 321.928 75.7627 318.67 76.558 315.428L75.5867 315.189C76.3898 311.915 77.2297 308.656 78.1057 305.413L79.0711 305.674C79.9453 302.438 80.8557 299.218 81.8017 296.014L80.8427 295.731C81.7971 292.499 82.7877 289.284 83.8141 286.086L84.7663 286.392C85.7907 283.2 86.8509 280.025 87.9462 276.868L87.0015 276.541C88.1056 273.358 89.2455 270.194 90.4205 267.048L91.3573 267.398C92.5303 264.257 93.7384 261.135 94.9812 258.032L94.0529 257.66C95.3048 254.534 96.5918 251.427 97.9134 248.34L98.8327 248.734C100.152 245.652 101.506 242.59 102.894 239.548L101.984 239.133C103.381 236.07 104.813 233.027 106.279 230.006L107.179 230.443C108.642 227.426 110.139 224.431 111.669 221.457L110.78 221C112.32 218.007 113.894 215.036 115.501 212.087L116.379 212.566C117.984 209.622 119.621 206.701 121.291 203.803L120.424 203.304C122.105 200.388 123.817 197.495 125.563 194.626L126.417 195.146C128.159 192.282 129.934 189.442 131.74 186.626L130.898 186.086C132.715 183.254 134.563 180.446 136.443 177.663L137.272 178.223C139.149 175.445 141.057 172.693 142.995 169.966L142.18 169.387C144.13 166.645 146.111 163.929 148.122 161.239L148.923 161.838C150.93 159.154 152.968 156.496 155.036 153.865L154.249 153.247C156.328 150.602 158.437 147.985 160.576 145.395L161.347 146.031C163.481 143.447 165.644 140.89 167.837 138.362L167.081 137.707C169.285 135.166 171.518 132.653 173.779 130.17L174.519 130.843C176.775 128.365 179.06 125.916 181.373 123.497L180.651 122.805C182.974 120.375 185.326 117.974 187.706 115.604L188.412 116.312C190.787 113.947 193.189 111.612 195.618 109.308L194.93 108.583C197.369 106.269 199.836 103.987 202.329 101.736L202.999 102.478C205.487 100.233 208.001 98.0184 210.541 95.8364L209.89 95.0778C212.439 92.8879 215.015 90.7302 217.617 88.6054L218.249 89.3799C220.845 87.26 223.466 85.1729 226.112 83.1192L225.499 82.3293C228.153 80.2691 230.833 78.2424 233.537 76.2498L234.13 77.0549C236.828 75.0671 239.55 73.1134 242.296 71.1944L241.724 70.3747C244.477 68.4504 247.255 66.5608 250.056 64.7066L250.608 65.5404C253.402 63.691 256.219 61.8768 259.059 60.0984L258.529 59.2509C261.375 57.4684 264.245 55.7218 267.136 54.0118L267.645 54.8725C270.529 53.1674 273.435 51.4986 276.362 49.8668L275.875 48.9933C278.808 47.3584 281.763 45.7605 284.739 44.2002L285.203 45.0859C288.17 43.5306 291.157 42.0128 294.165 40.5332L293.723 39.6359C296.736 38.1539 299.769 36.71 302.822 35.3048L303.24 36.2132C306.282 34.8131 309.343 33.4516 312.424 32.1292L312.03 31.2103C315.114 29.8862 318.218 28.6013 321.34 27.356L321.711 28.2849C324.82 27.0449 327.948 25.8443 331.094 24.6838L330.748 23.7456C333.896 22.5841 337.063 21.4626 340.247 20.3816L340.569 21.3285C343.737 20.2528 346.923 19.2174 350.126 18.2229L349.83 17.2679C353.034 16.2728 356.256 15.3186 359.493 14.4057L359.765 15.3682C362.984 14.4604 366.22 13.5936 369.471 12.7685L369.225 11.7992C372.477 10.9739 375.744 10.1901 379.026 9.44834L379.247 10.4237C382.508 9.68672 385.784 8.99135 389.075 8.3382L388.88 7.35734C392.17 6.70427 395.475 6.09331 398.793 5.52499L398.961 6.51064C402.256 5.94636 405.564 5.42424 408.885 4.94482L408.742 3.95508C412.061 3.47596 415.393 3.03937 418.737 2.64587L418.854 3.63902C422.173 3.24858 425.503 2.90066 428.846 2.5958L428.755 1.59994C432.094 1.29546 435.444 1.03383 438.805 0.815563L438.87 1.81346C442.203 1.597 445.548 1.42331 448.903 1.2929L448.864 0.293653C452.212 0.163524 455.571 0.0763882 458.94 0.0327561L458.953 1.03267C460.633 1.01091 462.315 1 464 1C465.685 1 467.368 1.01091 469.048 1.03268L469.061 0.0327604C472.429 0.0763954 475.788 0.163534 479.136 0.293666L479.097 1.29291C482.452 1.42332 485.797 1.59702 489.131 1.81348L489.195 0.815581C492.557 1.03385 495.907 1.29548 499.245 1.59996L499.154 2.59583C502.497 2.90068 505.828 3.2486 509.146 3.63905L509.263 2.6459C512.607 3.0394 515.939 3.47598 519.258 3.95511L519.115 4.94485C522.436 5.42427 525.744 5.94639 529.039 6.51067L529.208 5.52503C532.526 6.09334 535.83 6.70431 539.12 7.35737L538.925 8.33823C542.216 8.99138 545.492 9.68674 548.753 10.4238L548.974 9.44836C552.256 10.1901 555.523 10.9739 558.775 11.7992L558.529 12.7685C561.78 13.5936 565.016 14.4604 568.235 15.3682L568.507 14.4057C571.744 15.3186 574.966 16.2728 578.17 17.2679L577.874 18.2229C581.077 19.2175 584.263 20.2528 587.431 21.3285L587.753 20.3816C590.937 21.4626 594.104 22.5841 597.252 23.7456L596.906 24.6838C600.052 25.8443 603.18 27.0449 606.289 28.2849L606.66 27.356C609.782 28.6013 612.886 29.8862 615.97 31.2103L615.576 32.1292C618.657 33.4516 621.718 34.8131 624.76 36.2132L625.178 35.3048C628.231 36.71 631.264 38.1539 634.277 39.6359L633.835 40.5332C636.843 42.0129 639.83 43.5306 642.797 45.0859L643.261 44.2002C646.237 45.7605 649.192 47.3584 652.125 48.9933L651.638 49.8668C654.565 51.4986 657.471 53.1674 660.355 54.8726L660.864 54.0118C663.755 55.7218 666.625 57.4684 669.472 59.2509L668.941 60.0984C671.781 61.8768 674.598 63.691 677.392 65.5404L677.944 64.7066C680.745 66.5608 683.523 68.4504 686.276 70.3747L685.704 71.1944C688.45 73.1135 691.172 75.0672 693.87 77.0549L694.463 76.2499C697.167 78.2424 699.847 80.2691 702.501 82.3293L701.888 83.1193C704.534 85.1729 707.155 87.26 709.751 89.3799L710.383 88.6054C712.985 90.7302 715.561 92.8879 718.11 95.0779L717.459 95.8364C719.999 98.0185 722.513 100.233 725.001 102.478L725.671 101.736C728.164 103.987 730.631 106.269 733.07 108.583L732.382 109.308C734.811 111.612 737.213 113.947 739.588 116.312L740.294 115.604C742.674 117.974 745.026 120.375 747.349 122.805L746.627 123.497C748.94 125.916 751.225 128.365 753.481 130.843L754.221 130.17C756.482 132.653 758.715 135.166 760.919 137.707L760.163 138.362C762.356 140.89 764.519 143.447 766.653 146.031L767.424 145.395C769.563 147.985 771.672 150.602 773.751 153.247L772.964 153.865C775.032 156.496 777.07 159.154 779.077 161.838L779.878 161.239C781.889 163.929 783.87 166.645 785.82 169.387L785.005 169.966C786.944 172.693 788.851 175.445 790.728 178.223L791.557 177.663C793.437 180.446 795.285 183.254 797.102 186.086L796.26 186.626C798.066 189.442 799.841 192.282 801.583 195.146L802.437 194.626C804.183 197.495 805.896 200.388 807.576 203.304L806.709 203.803C808.379 206.701 810.016 209.623 811.621 212.566L812.499 212.087C814.106 215.036 815.68 218.007 817.22 221L816.331 221.457C817.861 224.431 819.358 227.426 820.821 230.443L821.721 230.006C823.187 233.027 824.619 236.07 826.016 239.133L825.106 239.548C826.494 242.59 827.848 245.652 829.167 248.734L830.087 248.34C831.408 251.427 832.695 254.534 833.947 257.66L833.019 258.032C834.262 261.135 835.47 264.257 836.643 267.398L837.58 267.048C838.755 270.194 839.894 273.358 840.999 276.541L840.054 276.868C841.149 280.025 842.209 283.2 843.234 286.392L844.186 286.086C845.212 289.284 846.203 292.5 847.157 295.731L846.198 296.015C847.144 299.218 848.055 302.438 848.929 305.674L849.894 305.413C850.77 308.656 851.61 311.915 852.413 315.19L851.442 315.428C852.237 318.67 852.996 321.928 853.719 325.2L854.695 324.985C855.42 328.265 856.107 331.559 856.758 334.868L855.776 335.061C856.42 338.337 857.028 341.626 857.598 344.928L858.583 344.758C859.155 348.067 859.689 351.39 860.186 354.725L859.197 354.872C859.689 358.174 860.144 361.488 860.562 364.815L861.554 364.69C861.972 368.021 862.353 371.363 862.696 374.718L861.702 374.819C862.042 378.141 862.344 381.474 862.61 384.818L863.607 384.738C863.872 388.082 864.1 391.437 864.29 394.803L863.292 394.859C863.48 398.194 863.631 401.539 863.745 404.894L864.744 404.86Z" stroke="#E3183E" stroke-width="2" stroke-dasharray="10 10"/>
<path d="M897.749 474.383C897.86 477.729 897.935 481.084 897.972 484.448L896.972 484.459C896.991 486.137 897 487.817 897 489.5C897 491.183 896.991 492.863 896.972 494.542L897.972 494.553C897.935 497.917 897.86 501.271 897.749 504.617L896.749 504.584C896.638 507.929 896.489 511.266 896.305 514.592L897.303 514.648C897.116 518.01 896.892 521.362 896.631 524.704L895.634 524.626C895.374 527.961 895.077 531.285 894.743 534.598L895.738 534.698C895.401 538.049 895.027 541.389 894.616 544.718L893.623 544.595C893.213 547.918 892.766 551.23 892.283 554.529L893.272 554.674C892.785 558.001 892.262 561.316 891.702 564.619L890.716 564.451C890.155 567.755 889.559 571.046 888.926 574.324L889.908 574.514C889.272 577.811 888.599 581.096 887.891 584.367L886.913 584.155C886.204 587.431 885.458 590.695 884.677 593.944L885.649 594.178C884.865 597.44 884.044 600.688 883.189 603.922L882.222 603.666C881.364 606.908 880.471 610.136 879.542 613.348L880.503 613.626C879.572 616.847 878.605 620.053 877.604 623.244L876.65 622.945C875.645 626.145 874.606 629.33 873.532 632.498L874.479 632.819C873.402 635.995 872.291 639.155 871.145 642.299L870.206 641.956C869.058 645.106 867.875 648.239 866.659 651.355L867.59 651.719C866.37 654.844 865.116 657.952 863.828 661.042L862.905 660.657C861.616 663.75 860.293 666.824 858.937 669.881L859.851 670.287C858.491 673.354 857.096 676.403 855.669 679.433L854.764 679.007C853.338 682.036 851.878 685.047 850.385 688.039L851.28 688.485C849.782 691.488 848.251 694.472 846.687 697.436L845.803 696.969C844.241 699.93 842.647 702.871 841.021 705.792L841.895 706.278C840.263 709.21 838.599 712.122 836.903 715.014L836.04 714.508C834.347 717.394 832.622 720.26 830.867 723.105L831.718 723.63C829.955 726.486 828.161 729.32 826.337 732.133L825.498 731.589C823.677 734.396 821.826 737.181 819.944 739.945L820.77 740.508C818.881 743.281 816.962 746.032 815.013 748.761L814.199 748.18C812.254 750.902 810.28 753.602 808.275 756.278L809.076 756.878C807.065 759.563 805.025 762.226 802.955 764.864L802.168 764.247C800.104 766.88 798.01 769.489 795.887 772.074L796.66 772.709C794.532 775.301 792.375 777.869 790.19 780.412L789.431 779.76C787.25 782.298 785.042 784.812 782.806 787.3L783.549 787.968C781.308 790.462 779.039 792.931 776.742 795.375L776.013 794.69C773.722 797.128 771.403 799.54 769.058 801.926L769.771 802.627C767.421 805.019 765.044 807.384 762.64 809.722L761.943 809.006C759.545 811.339 757.121 813.645 754.672 815.925L755.353 816.657C752.898 818.941 750.418 821.198 747.913 823.427L747.248 822.68C744.749 824.904 742.225 827.1 739.676 829.268L740.324 830.03C737.77 832.202 735.191 834.346 732.588 836.462L731.958 835.686C729.362 837.796 726.743 839.877 724.1 841.929L724.713 842.719C722.065 844.776 719.393 846.803 716.697 848.801L716.102 847.998C713.416 849.989 710.707 851.951 707.975 853.883L708.552 854.699C705.815 856.636 703.054 858.542 700.271 860.418L699.712 859.589C696.941 861.458 694.147 863.296 691.332 865.104L691.872 865.946C689.051 867.757 686.208 869.539 683.344 871.289L682.823 870.435C679.971 872.178 677.097 873.89 674.204 875.57L674.706 876.435C671.807 878.118 668.887 879.77 665.948 881.39L665.465 880.514C662.538 882.127 659.59 883.709 656.623 885.258L657.086 886.144C654.116 887.696 651.126 889.215 648.116 890.701L647.673 889.805C644.676 891.285 641.66 892.733 638.626 894.148L639.048 895.054C636.012 896.47 632.958 897.853 629.885 899.202L629.483 898.286C626.422 899.631 623.342 900.942 620.246 902.22L620.627 903.145C617.532 904.422 614.42 905.665 611.29 906.875L610.93 905.942C607.81 907.148 604.673 908.32 601.519 909.458L601.859 910.398C598.712 911.534 595.548 912.635 592.368 913.702L592.05 912.754C588.878 913.819 585.69 914.849 582.486 915.844L582.782 916.799C579.589 917.791 576.381 918.749 573.158 919.671L572.883 918.71C569.667 919.63 566.437 920.515 563.192 921.365L563.446 922.333C560.21 923.18 556.96 923.992 553.697 924.769L553.465 923.797C550.214 924.571 546.949 925.309 543.67 926.012L543.88 926.99C540.608 927.691 537.323 928.357 534.024 928.988L533.837 928.005C530.557 928.632 527.264 929.223 523.959 929.778L524.125 930.764C520.822 931.318 517.506 931.837 514.179 932.319L514.036 931.33C510.735 931.808 507.423 932.25 504.099 932.657L504.22 933.649C500.891 934.056 497.551 934.427 494.2 934.761L494.101 933.766C490.787 934.096 487.462 934.39 484.127 934.648L484.205 935.645C480.862 935.903 477.51 936.125 474.147 936.31L474.092 935.311C470.766 935.495 467.429 935.641 464.084 935.752L464.117 936.751C460.771 936.861 457.416 936.935 454.052 936.972L454.041 935.972C452.363 935.991 450.683 936 449 936C447.317 936 445.637 935.991 443.958 935.972L443.947 936.972C440.583 936.935 437.228 936.861 433.883 936.751L433.916 935.752C430.57 935.641 427.234 935.495 423.907 935.311L423.852 936.31C420.49 936.125 417.137 935.903 413.795 935.645L413.872 934.648C410.537 934.39 407.212 934.096 403.898 933.766L403.799 934.761C400.448 934.427 397.108 934.056 393.779 933.649L393.901 932.657C390.577 932.25 387.265 931.808 383.964 931.33L383.82 932.319C380.493 931.837 377.178 931.318 373.875 930.764L374.04 929.778C370.735 929.223 367.443 928.632 364.163 928.005L363.975 928.987C360.677 928.357 357.392 927.691 354.12 926.99L354.329 926.012C351.051 925.309 347.786 924.571 344.534 923.797L344.303 924.769C341.039 923.992 337.79 923.18 334.554 922.333L334.807 921.365C331.563 920.515 328.333 919.63 325.117 918.71L324.842 919.671C321.619 918.749 318.41 917.791 315.217 916.799L315.514 915.844C312.31 914.849 309.122 913.819 305.95 912.754L305.631 913.702C302.452 912.635 299.288 911.534 296.141 910.398L296.48 909.458C293.327 908.32 290.19 907.148 287.07 905.942L286.71 906.875C283.58 905.665 280.468 904.422 277.373 903.145L277.754 902.22C274.658 900.942 271.578 899.631 268.517 898.286L268.115 899.202C265.042 897.853 261.988 896.47 258.952 895.054L259.374 894.148C256.34 892.733 253.324 891.285 250.327 889.805L249.884 890.701C246.874 889.215 243.884 887.696 240.914 886.144L241.377 885.258C238.41 883.709 235.462 882.127 232.535 880.514L232.052 881.39C229.113 879.77 226.193 878.118 223.294 876.435L223.796 875.57C220.903 873.89 218.029 872.178 215.177 870.435L214.656 871.289C211.792 869.539 208.949 867.757 206.128 865.946L206.668 865.104C203.853 863.296 201.059 861.458 198.288 859.589L197.729 860.418C194.946 858.542 192.185 856.636 189.448 854.699L190.025 853.883C187.293 851.951 184.584 849.989 181.898 847.998L181.303 848.801C178.607 846.803 175.935 844.776 173.287 842.719L173.9 841.929C171.257 839.877 168.638 837.796 166.042 835.686L165.412 836.462C162.809 834.346 160.23 832.202 157.676 830.03L158.324 829.268C155.775 827.1 153.251 824.904 150.752 822.68L150.087 823.427C147.582 821.198 145.102 818.941 142.647 816.657L143.328 815.925C140.879 813.645 138.455 811.339 136.057 809.006L135.36 809.722C132.956 807.384 130.579 805.019 128.229 802.627L128.942 801.926C126.597 799.54 124.278 797.128 121.987 794.69L121.258 795.375C118.961 792.931 116.692 790.462 114.451 787.968L115.194 787.3C112.958 784.812 110.75 782.298 108.569 779.76L107.81 780.412C105.625 777.869 103.468 775.301 101.34 772.709L102.113 772.074C99.9904 769.489 97.8965 766.88 95.8315 764.247L95.0447 764.864C92.9753 762.226 90.9349 759.563 88.924 756.878L89.7245 756.278C87.7204 753.602 85.7456 750.902 83.8008 748.18L82.9871 748.761C81.0379 746.032 79.1186 743.281 77.2298 740.508L78.0563 739.945C76.1745 737.181 74.323 734.396 72.5021 731.589L71.6632 732.133C69.8386 729.32 68.0448 726.486 66.2823 723.63L67.1332 723.105C65.3775 720.26 63.6529 717.394 61.9599 714.508L61.0973 715.014C59.4014 712.122 57.7371 709.21 56.1049 706.278L56.9786 705.792C55.3527 702.871 53.7588 699.93 52.1972 696.969L51.3127 697.436C49.7493 694.472 48.2182 691.488 46.72 688.485L47.6148 688.039C46.1223 685.047 44.6624 682.036 43.2356 679.007L42.3309 679.433C40.9036 676.403 39.5093 673.354 38.1487 670.287L39.0628 669.881C37.7067 666.824 36.384 663.75 35.0953 660.657L34.1722 661.042C32.8842 657.952 31.63 654.844 30.41 651.719L31.3415 651.355C30.1249 648.239 28.9423 645.106 27.7944 641.956L26.8548 642.299C25.7091 639.155 24.5977 635.995 23.5211 632.819L24.4682 632.498C23.394 629.329 22.3546 626.145 21.3503 622.945L20.3962 623.244C19.3949 620.053 18.4284 616.847 17.4972 613.626L18.4579 613.348C17.5292 610.135 16.6358 606.908 15.778 603.666L14.8112 603.922C13.9555 600.688 13.1353 597.44 12.3508 594.177L13.3231 593.944C12.5418 590.694 11.7961 587.431 11.0865 584.155L10.1092 584.366C9.40074 581.095 8.72817 577.811 8.09192 574.514L9.0738 574.324C8.4412 571.046 7.84458 567.755 7.28436 564.451L6.29843 564.618C5.73836 561.316 5.21458 558.001 4.72754 554.674L5.71699 554.529C5.23389 551.229 4.787 547.918 4.37674 544.595L3.38427 544.717C2.97331 541.389 2.59901 538.049 2.26181 534.698L3.25678 534.598C2.92333 531.284 2.62623 527.96 2.36588 524.626L1.36891 524.704C1.10798 521.362 0.883875 518.01 0.697012 514.647L1.69547 514.592C1.51058 511.265 1.36223 507.929 1.2508 504.583L0.251357 504.617C0.139937 501.271 0.0653624 497.916 0.0280264 494.552L1.02796 494.541C1.00934 492.863 1 491.183 1 489.5C1 487.818 1.00934 486.137 1.02796 484.459L0.0280208 484.448C0.0653532 481.084 0.139924 477.73 0.251341 474.384L1.25079 474.417C1.36221 471.072 1.51056 467.735 1.69545 464.409L0.696986 464.353C0.883847 460.991 1.10794 457.639 1.36888 454.297L2.36584 454.375C2.62619 451.04 2.92329 447.716 3.25674 444.402L2.26177 444.302C2.59897 440.952 2.97326 437.612 3.38422 434.283L4.37669 434.406C4.78695 431.083 5.23384 427.771 5.71694 424.471L4.72748 424.326C5.21453 421 5.7383 417.685 6.29838 414.382L7.2843 414.549C7.84452 411.246 8.44115 407.955 9.07375 404.676L8.09186 404.487C8.72812 401.189 9.40068 397.905 10.1091 394.634L11.0865 394.845C11.7961 391.569 12.5418 388.306 13.3231 385.057L12.3508 384.823C13.1352 381.561 13.9555 378.312 14.8112 375.078L15.7779 375.334C16.6357 372.092 17.5292 368.865 18.4579 365.652L17.4972 365.374C18.4283 362.153 19.3948 358.947 20.3962 355.756L21.3503 356.055C22.3546 352.855 23.394 349.671 24.4682 346.502L23.5211 346.181C24.5977 343.005 25.7091 339.845 26.8548 336.701L27.7943 337.044C28.9423 333.894 30.1248 330.761 31.3415 327.645L30.4099 327.281C31.63 324.156 32.8842 321.048 34.1722 317.958L35.0952 318.343C36.384 315.25 37.7067 312.176 39.0628 309.119L38.1487 308.713C39.5094 305.646 40.9036 302.597 42.3309 299.567L43.2356 299.993C44.6624 296.964 46.1223 293.953 47.6149 290.961L46.72 290.515C48.2182 287.512 49.7493 284.528 51.3127 281.564L52.1972 282.031C53.7588 279.07 55.3527 276.129 56.9786 273.208L56.1049 272.722C57.7371 269.79 59.4014 266.878 61.0974 263.986L61.9599 264.492C63.653 261.606 65.3776 258.74 67.1333 255.895L66.2823 255.37C68.0448 252.514 69.8386 249.68 71.6632 246.867L72.5022 247.411C74.323 244.604 76.1745 241.819 78.0564 239.055L77.2298 238.492C79.1187 235.719 81.0379 232.968 82.9871 230.239L83.8008 230.82C85.7457 228.098 87.7204 225.398 89.7246 222.722L88.9241 222.122C90.9349 219.437 92.9753 216.774 95.0447 214.136L95.8316 214.753C97.8965 212.12 99.9904 209.511 102.113 206.926L101.34 206.291C103.468 203.699 105.625 201.131 107.81 198.588L108.569 199.24C110.75 196.702 112.958 194.188 115.194 191.7L114.451 191.032C116.692 188.538 118.961 186.069 121.258 183.625L121.987 184.31C124.278 181.872 126.597 179.46 128.942 177.074L128.229 176.373C130.579 173.981 132.956 171.616 135.36 169.278L136.057 169.994C138.455 167.661 140.879 165.355 143.328 163.075L142.647 162.343C145.102 160.059 147.582 157.802 150.087 155.573L150.752 156.32C153.251 154.096 155.775 151.9 158.324 149.732L157.676 148.97C160.23 146.798 162.809 144.653 165.412 142.538L166.042 143.314C168.638 141.204 171.257 139.123 173.9 137.071L173.287 136.281C175.935 134.224 178.607 132.197 181.303 130.199L181.898 131.002C184.584 129.011 187.293 127.049 190.025 125.117L189.448 124.301C192.185 122.364 194.946 120.458 197.729 118.582L198.288 119.411C201.059 117.542 203.853 115.704 206.668 113.896L206.128 113.054C208.949 111.243 211.792 109.461 214.656 107.711L215.177 108.565C218.029 106.822 220.903 105.11 223.796 103.43L223.294 102.565C226.193 100.882 229.113 99.23 232.052 97.61L232.535 98.4858C235.462 96.8727 238.41 95.2912 241.377 93.7419L240.914 92.8555C243.884 91.3043 246.874 89.7853 249.884 88.2989L250.327 89.1955C253.324 87.7151 256.34 86.2672 259.374 84.8522L258.952 83.9458C261.988 82.5302 265.042 81.1474 268.115 79.7979L268.517 80.7135C271.578 79.369 274.658 78.0576 277.754 76.7799L277.373 75.8555C280.468 74.5785 283.58 73.3349 286.71 72.1254L287.07 73.0581C290.19 71.8522 293.327 70.6802 296.481 69.5424L296.141 68.6017C299.288 67.4662 302.452 66.3646 305.632 65.2976L305.95 66.2456C309.122 65.181 312.31 64.1508 315.514 63.1555L315.217 62.2005C318.411 61.2085 321.619 60.2511 324.842 59.3287L325.117 60.2901C328.333 59.3699 331.563 58.4847 334.808 57.6348L334.554 56.6674C337.79 55.8199 341.04 55.0075 344.303 54.2306L344.535 55.2034C347.786 54.4294 351.051 53.6907 354.33 52.9878L354.12 52.01C357.392 51.3085 360.677 50.6425 363.976 50.0124L364.163 50.9947C367.443 50.3681 370.736 49.7772 374.041 49.2224L373.875 48.2362C377.178 47.6816 380.494 47.163 383.821 46.6808L383.964 47.6705C387.265 47.1921 390.577 46.7495 393.901 46.3433L393.78 45.3507C397.109 44.9438 400.449 44.5732 403.8 44.2394L403.899 45.2344C407.213 44.9043 410.538 44.6101 413.872 44.3523L413.795 43.3553C417.138 43.0969 420.49 42.875 423.853 42.69L423.908 43.6885C427.234 43.5055 430.571 43.3586 433.916 43.2483L433.883 42.2489C437.229 42.1385 440.584 42.0647 443.948 42.0277L443.959 43.0277C445.637 43.0092 447.317 43 449 43C450.682 43 452.363 43.0092 454.041 43.0277L454.052 42.0277C457.416 42.0647 460.771 42.1385 464.116 42.2488L464.083 43.2483C467.429 43.3586 470.765 43.5055 474.092 43.6885L474.147 42.69C477.509 42.875 480.862 43.0969 484.204 43.3552L484.127 44.3523C487.462 44.61 490.787 44.9042 494.101 45.2344L494.2 44.2393C497.551 44.5732 500.891 44.9437 504.22 45.3506L504.098 46.3432C507.422 46.7495 510.735 47.192 514.035 47.6704L514.179 46.6807C517.506 47.163 520.822 47.6816 524.125 48.2361L523.959 49.2223C527.264 49.7772 530.557 50.3681 533.836 50.9946L534.024 50.0124C537.322 50.6424 540.608 51.3084 543.88 52.01L543.67 52.9878C546.949 53.6907 550.214 54.4294 553.465 55.2034L553.697 54.2305C556.96 55.0074 560.21 55.8199 563.446 56.6674L563.192 57.6347C566.437 58.4846 569.667 59.3699 572.883 60.2901L573.158 59.3287C576.381 60.2511 579.589 61.2085 582.782 62.2005L582.486 63.1555C585.689 64.1508 588.878 65.181 592.05 66.2456L592.368 65.2976C595.548 66.3646 598.712 67.4661 601.859 68.6017L601.519 69.5424C604.673 70.6802 607.81 71.8522 610.93 73.0581L611.29 72.1254C614.42 73.3349 617.532 74.5785 620.627 75.8555L620.246 76.7799C623.342 78.0576 626.422 79.369 629.483 80.7135L629.885 79.7979C632.958 81.1474 636.012 82.5302 639.048 83.9459L638.626 84.8522C641.66 86.2672 644.676 87.7151 647.674 89.1955L648.116 88.2989C651.126 89.7853 654.116 91.3043 657.086 92.8555L656.624 93.7419C659.59 95.2912 662.538 96.8727 665.465 98.4858L665.948 97.61C668.887 99.23 671.807 100.882 674.706 102.565L674.204 103.43C677.097 105.11 679.971 106.822 682.823 108.565L683.344 107.711C686.208 109.461 689.051 111.243 691.872 113.054L691.332 113.896C694.147 115.704 696.941 117.542 699.712 119.411L700.271 118.582C703.054 120.458 705.815 122.364 708.552 124.301L707.975 125.117C710.707 127.049 713.416 129.011 716.102 131.002L716.697 130.199C719.393 132.197 722.065 134.224 724.713 136.281L724.1 137.071C726.743 139.123 729.362 141.204 731.958 143.314L732.588 142.538C735.191 144.654 737.77 146.798 740.324 148.97L739.676 149.732C742.225 151.9 744.749 154.096 747.248 156.32L747.913 155.573C750.418 157.802 752.898 160.059 755.353 162.343L754.672 163.075C757.121 165.355 759.545 167.661 761.943 169.994L762.64 169.278C765.044 171.616 767.421 173.981 769.771 176.373L769.058 177.074C771.403 179.46 773.722 181.872 776.013 184.31L776.742 183.626C779.039 186.069 781.308 188.538 783.549 191.032L782.806 191.7C785.042 194.188 787.25 196.702 789.431 199.24L790.19 198.588C792.375 201.131 794.532 203.699 796.66 206.291L795.887 206.926C798.01 209.511 800.104 212.12 802.168 214.753L802.955 214.136C805.025 216.774 807.065 219.437 809.076 222.122L808.276 222.722C810.28 225.398 812.254 228.098 814.199 230.82L815.013 230.239C816.962 232.968 818.881 235.719 820.77 238.492L819.944 239.055C821.826 241.819 823.677 244.604 825.498 247.411L826.337 246.867C828.161 249.68 829.955 252.514 831.718 255.37L830.867 255.895C832.622 258.74 834.347 261.606 836.04 264.492L836.903 263.986C838.599 266.878 840.263 269.79 841.895 272.722L841.021 273.208C842.647 276.129 844.241 279.07 845.803 282.031L846.687 281.564C848.251 284.528 849.782 287.512 851.28 290.515L850.385 290.961C851.878 293.953 853.338 296.964 854.764 299.993L855.669 299.567C857.096 302.597 858.491 305.646 859.851 308.713L858.937 309.119C860.293 312.176 861.616 315.25 862.905 318.343L863.828 317.958C865.116 321.048 866.37 324.156 867.59 327.281L866.659 327.645C867.875 330.761 869.058 333.894 870.206 337.044L871.145 336.701C872.291 339.845 873.402 343.005 874.479 346.181L873.532 346.502C874.606 349.671 875.645 352.855 876.65 356.055L877.604 355.756C878.605 358.947 879.572 362.153 880.503 365.374L879.542 365.652C880.471 368.865 881.364 372.092 882.222 375.334L883.189 375.078C884.044 378.312 884.865 381.56 885.649 384.823L884.677 385.056C885.458 388.306 886.204 391.569 886.913 394.845L887.891 394.634C888.599 397.905 889.272 401.189 889.908 404.486L888.926 404.676C889.559 407.954 890.155 411.245 890.716 414.549L891.702 414.382C892.262 417.684 892.785 420.999 893.272 424.326L892.283 424.471C892.766 427.771 893.213 431.082 893.623 434.405L894.616 434.283C895.027 437.611 895.401 440.951 895.738 444.302L894.743 444.402C895.077 447.716 895.374 451.04 895.634 454.374L896.631 454.296C896.892 457.638 897.116 460.99 897.303 464.353L896.305 464.408C896.489 467.735 896.638 471.071 896.749 474.417L897.749 474.383Z" stroke="#C4C4C4" stroke-width="2" stroke-dasharray="10 10"/>
</svg>
